%TF.GenerationSoftware,KiCad,Pcbnew,8.0.5*%
%TF.CreationDate,2024-11-19T19:36:28+01:00*%
%TF.ProjectId,board,626f6172-642e-46b6-9963-61645f706362,rev?*%
%TF.SameCoordinates,Original*%
%TF.FileFunction,Drillmap*%
%TF.FilePolarity,Positive*%
%FSLAX45Y45*%
G04 Gerber Fmt 4.5, Leading zero omitted, Abs format (unit mm)*
G04 Created by KiCad (PCBNEW 8.0.5) date 2024-11-19 19:36:28*
%MOMM*%
%LPD*%
G01*
G04 APERTURE LIST*
%ADD10C,0.050000*%
%ADD11C,0.120000*%
%ADD12C,0.200000*%
%ADD13C,0.100000*%
%ADD14C,0.102000*%
%ADD15C,0.110000*%
%ADD16C,0.130000*%
G04 APERTURE END LIST*
D10*
X9500000Y-3184000D02*
X24719000Y-3184000D01*
X24719000Y-14126000D01*
X9500000Y-14126000D01*
X9500000Y-3184000D01*
D11*
X10227105Y-12277100D02*
G75*
G02*
X9867895Y-12277100I-179605J0D01*
G01*
X9867895Y-12277100D02*
G75*
G02*
X10227105Y-12277100I179605J0D01*
G01*
X10265205Y-4619000D02*
G75*
G02*
X9905995Y-4619000I-179605J0D01*
G01*
X9905995Y-4619000D02*
G75*
G02*
X10265205Y-4619000I179605J0D01*
G01*
X14659405Y-4619000D02*
G75*
G02*
X14300195Y-4619000I-179605J0D01*
G01*
X14300195Y-4619000D02*
G75*
G02*
X14659405Y-4619000I179605J0D01*
G01*
X14672105Y-12277100D02*
G75*
G02*
X14312895Y-12277100I-179605J0D01*
G01*
X14312895Y-12277100D02*
G75*
G02*
X14672105Y-12277100I179605J0D01*
G01*
D12*
D13*
X12879000Y-6556000D02*
X12909000Y-6586000D01*
X12909000Y-6556000D02*
X12879000Y-6586000D01*
X13146000Y-9677000D02*
X13176000Y-9707000D01*
X13176000Y-9677000D02*
X13146000Y-9707000D01*
X13910000Y-10827000D02*
X13940000Y-10857000D01*
X13940000Y-10827000D02*
X13910000Y-10857000D01*
X13914000Y-9108000D02*
X13944000Y-9138000D01*
X13944000Y-9108000D02*
X13914000Y-9138000D01*
X13920000Y-9666000D02*
X13950000Y-9696000D01*
X13950000Y-9666000D02*
X13920000Y-9696000D01*
X15507000Y-6559000D02*
X15537000Y-6589000D01*
X15537000Y-6559000D02*
X15507000Y-6589000D01*
X17301000Y-10123000D02*
X17331000Y-10153000D01*
X17331000Y-10123000D02*
X17301000Y-10153000D01*
X17994000Y-11394000D02*
X18024000Y-11424000D01*
X18024000Y-11394000D02*
X17994000Y-11424000D01*
X18168000Y-6286000D02*
X18198000Y-6316000D01*
X18198000Y-6286000D02*
X18168000Y-6316000D01*
X18177000Y-5613000D02*
X18207000Y-5643000D01*
X18207000Y-5613000D02*
X18177000Y-5643000D01*
X18647000Y-8018000D02*
X18677000Y-8048000D01*
X18677000Y-8018000D02*
X18647000Y-8048000D01*
X18974000Y-13504000D02*
X19004000Y-13534000D01*
X19004000Y-13504000D02*
X18974000Y-13534000D01*
X19641000Y-12255000D02*
X19671000Y-12285000D01*
X19671000Y-12255000D02*
X19641000Y-12285000D01*
X20865000Y-7931000D02*
X20895000Y-7961000D01*
X20895000Y-7931000D02*
X20865000Y-7961000D01*
X17654000Y-6110000D02*
G75*
G02*
X17584000Y-6110000I-35000J0D01*
G01*
X17584000Y-6110000D02*
G75*
G02*
X17654000Y-6110000I35000J0D01*
G01*
X17844000Y-6110000D02*
G75*
G02*
X17774000Y-6110000I-35000J0D01*
G01*
X17774000Y-6110000D02*
G75*
G02*
X17844000Y-6110000I35000J0D01*
G01*
X10619000Y-12707000D02*
X10619000Y-12787000D01*
X10579000Y-12747000D02*
X10659000Y-12747000D01*
X10873000Y-12707000D02*
X10873000Y-12787000D01*
X10833000Y-12747000D02*
X10913000Y-12747000D01*
X11127000Y-12707000D02*
X11127000Y-12787000D01*
X11087000Y-12747000D02*
X11167000Y-12747000D01*
X11381000Y-12707000D02*
X11381000Y-12787000D01*
X11341000Y-12747000D02*
X11421000Y-12747000D01*
X11635000Y-12707000D02*
X11635000Y-12787000D01*
X11595000Y-12747000D02*
X11675000Y-12747000D01*
X11889000Y-12707000D02*
X11889000Y-12787000D01*
X11849000Y-12747000D02*
X11929000Y-12747000D01*
X12143000Y-12707000D02*
X12143000Y-12787000D01*
X12103000Y-12747000D02*
X12183000Y-12747000D01*
X12397000Y-12707000D02*
X12397000Y-12787000D01*
X12357000Y-12747000D02*
X12437000Y-12747000D01*
X12651000Y-12707000D02*
X12651000Y-12787000D01*
X12611000Y-12747000D02*
X12691000Y-12747000D01*
X12905000Y-12707000D02*
X12905000Y-12787000D01*
X12865000Y-12747000D02*
X12945000Y-12747000D01*
X13159000Y-12707000D02*
X13159000Y-12787000D01*
X13119000Y-12747000D02*
X13199000Y-12747000D01*
X13413000Y-12707000D02*
X13413000Y-12787000D01*
X13373000Y-12747000D02*
X13453000Y-12747000D01*
X13667000Y-12707000D02*
X13667000Y-12787000D01*
X13627000Y-12747000D02*
X13707000Y-12747000D01*
X13921000Y-12707000D02*
X13921000Y-12787000D01*
X13881000Y-12747000D02*
X13961000Y-12747000D01*
X19638000Y-5820000D02*
X19638000Y-5900000D01*
X19598000Y-5860000D02*
X19678000Y-5860000D01*
X19883160Y-7044000D02*
X19883160Y-7124000D01*
X19843160Y-7084000D02*
X19923160Y-7084000D01*
X19883160Y-7244000D02*
X19883160Y-7324000D01*
X19843160Y-7284000D02*
X19923160Y-7284000D01*
X19892000Y-5820000D02*
X19892000Y-5900000D01*
X19852000Y-5860000D02*
X19932000Y-5860000D01*
X20083160Y-7044000D02*
X20083160Y-7124000D01*
X20043160Y-7084000D02*
X20123160Y-7084000D01*
X20083160Y-7244000D02*
X20083160Y-7324000D01*
X20043160Y-7284000D02*
X20123160Y-7284000D01*
X20283160Y-7044000D02*
X20283160Y-7124000D01*
X20243160Y-7084000D02*
X20323160Y-7084000D01*
X20283160Y-7244000D02*
X20283160Y-7324000D01*
X20243160Y-7284000D02*
X20323160Y-7284000D01*
X22567356Y-12806356D02*
X22567356Y-12735644D01*
X22496644Y-12735644D01*
X22496644Y-12806356D01*
X22567356Y-12806356D01*
X22567356Y-13060356D02*
X22567356Y-12989644D01*
X22496644Y-12989644D01*
X22496644Y-13060356D01*
X22567356Y-13060356D01*
X22567356Y-13314356D02*
X22567356Y-13243644D01*
X22496644Y-13243644D01*
X22496644Y-13314356D01*
X22567356Y-13314356D01*
X22567356Y-13568356D02*
X22567356Y-13497644D01*
X22496644Y-13497644D01*
X22496644Y-13568356D01*
X22567356Y-13568356D01*
X22567356Y-13822356D02*
X22567356Y-13751644D01*
X22496644Y-13751644D01*
X22496644Y-13822356D01*
X22567356Y-13822356D01*
D14*
X15861000Y-6885000D02*
X15912000Y-6834000D01*
X15861000Y-6783000D01*
X15810000Y-6834000D01*
X15861000Y-6885000D01*
X15861000Y-7139000D02*
X15912000Y-7088000D01*
X15861000Y-7037000D01*
X15810000Y-7088000D01*
X15861000Y-7139000D01*
X15861000Y-7393000D02*
X15912000Y-7342000D01*
X15861000Y-7291000D01*
X15810000Y-7342000D01*
X15861000Y-7393000D01*
X15861000Y-7647000D02*
X15912000Y-7596000D01*
X15861000Y-7545000D01*
X15810000Y-7596000D01*
X15861000Y-7647000D01*
X15861000Y-7901000D02*
X15912000Y-7850000D01*
X15861000Y-7799000D01*
X15810000Y-7850000D01*
X15861000Y-7901000D01*
X15861000Y-8155000D02*
X15912000Y-8104000D01*
X15861000Y-8053000D01*
X15810000Y-8104000D01*
X15861000Y-8155000D01*
X15861000Y-8409000D02*
X15912000Y-8358000D01*
X15861000Y-8307000D01*
X15810000Y-8358000D01*
X15861000Y-8409000D01*
X15861000Y-8663000D02*
X15912000Y-8612000D01*
X15861000Y-8561000D01*
X15810000Y-8612000D01*
X15861000Y-8663000D01*
X15861000Y-8917000D02*
X15912000Y-8866000D01*
X15861000Y-8815000D01*
X15810000Y-8866000D01*
X15861000Y-8917000D01*
X15861000Y-9171000D02*
X15912000Y-9120000D01*
X15861000Y-9069000D01*
X15810000Y-9120000D01*
X15861000Y-9171000D01*
X15861000Y-9425000D02*
X15912000Y-9374000D01*
X15861000Y-9323000D01*
X15810000Y-9374000D01*
X15861000Y-9425000D01*
X15861000Y-9679000D02*
X15912000Y-9628000D01*
X15861000Y-9577000D01*
X15810000Y-9628000D01*
X15861000Y-9679000D01*
X15861000Y-9933000D02*
X15912000Y-9882000D01*
X15861000Y-9831000D01*
X15810000Y-9882000D01*
X15861000Y-9933000D01*
X15861000Y-10187000D02*
X15912000Y-10136000D01*
X15861000Y-10085000D01*
X15810000Y-10136000D01*
X15861000Y-10187000D01*
X15861000Y-10441000D02*
X15912000Y-10390000D01*
X15861000Y-10339000D01*
X15810000Y-10390000D01*
X15861000Y-10441000D01*
X15861000Y-10695000D02*
X15912000Y-10644000D01*
X15861000Y-10593000D01*
X15810000Y-10644000D01*
X15861000Y-10695000D01*
X17385000Y-7901000D02*
X17436000Y-7850000D01*
X17385000Y-7799000D01*
X17334000Y-7850000D01*
X17385000Y-7901000D01*
X17385000Y-8155000D02*
X17436000Y-8104000D01*
X17385000Y-8053000D01*
X17334000Y-8104000D01*
X17385000Y-8155000D01*
X17385000Y-8409000D02*
X17436000Y-8358000D01*
X17385000Y-8307000D01*
X17334000Y-8358000D01*
X17385000Y-8409000D01*
X17385000Y-8663000D02*
X17436000Y-8612000D01*
X17385000Y-8561000D01*
X17334000Y-8612000D01*
X17385000Y-8663000D01*
X17385000Y-8917000D02*
X17436000Y-8866000D01*
X17385000Y-8815000D01*
X17334000Y-8866000D01*
X17385000Y-8917000D01*
X17385000Y-9171000D02*
X17436000Y-9120000D01*
X17385000Y-9069000D01*
X17334000Y-9120000D01*
X17385000Y-9171000D01*
X17385000Y-9425000D02*
X17436000Y-9374000D01*
X17385000Y-9323000D01*
X17334000Y-9374000D01*
X17385000Y-9425000D01*
X17385000Y-9679000D02*
X17436000Y-9628000D01*
X17385000Y-9577000D01*
X17334000Y-9628000D01*
X17385000Y-9679000D01*
D15*
X18948000Y-5732000D02*
X19058000Y-5842000D01*
X19058000Y-5732000D02*
X18948000Y-5842000D01*
X19058000Y-5787000D02*
G75*
G02*
X18948000Y-5787000I-55000J0D01*
G01*
X18948000Y-5787000D02*
G75*
G02*
X19058000Y-5787000I55000J0D01*
G01*
X18948000Y-5986000D02*
X19058000Y-6096000D01*
X19058000Y-5986000D02*
X18948000Y-6096000D01*
X19058000Y-6041000D02*
G75*
G02*
X18948000Y-6041000I-55000J0D01*
G01*
X18948000Y-6041000D02*
G75*
G02*
X19058000Y-6041000I55000J0D01*
G01*
X18948000Y-6240000D02*
X19058000Y-6350000D01*
X19058000Y-6240000D02*
X18948000Y-6350000D01*
X19058000Y-6295000D02*
G75*
G02*
X18948000Y-6295000I-55000J0D01*
G01*
X18948000Y-6295000D02*
G75*
G02*
X19058000Y-6295000I55000J0D01*
G01*
X18948000Y-6494000D02*
X19058000Y-6604000D01*
X19058000Y-6494000D02*
X18948000Y-6604000D01*
X19058000Y-6549000D02*
G75*
G02*
X18948000Y-6549000I-55000J0D01*
G01*
X18948000Y-6549000D02*
G75*
G02*
X19058000Y-6549000I55000J0D01*
G01*
X18948000Y-6748000D02*
X19058000Y-6858000D01*
X19058000Y-6748000D02*
X18948000Y-6858000D01*
X19058000Y-6803000D02*
G75*
G02*
X18948000Y-6803000I-55000J0D01*
G01*
X18948000Y-6803000D02*
G75*
G02*
X19058000Y-6803000I55000J0D01*
G01*
X18948000Y-7002000D02*
X19058000Y-7112000D01*
X19058000Y-7002000D02*
X18948000Y-7112000D01*
X19058000Y-7057000D02*
G75*
G02*
X18948000Y-7057000I-55000J0D01*
G01*
X18948000Y-7057000D02*
G75*
G02*
X19058000Y-7057000I55000J0D01*
G01*
X18948000Y-7256000D02*
X19058000Y-7366000D01*
X19058000Y-7256000D02*
X18948000Y-7366000D01*
X19058000Y-7311000D02*
G75*
G02*
X18948000Y-7311000I-55000J0D01*
G01*
X18948000Y-7311000D02*
G75*
G02*
X19058000Y-7311000I55000J0D01*
G01*
X18948000Y-7510000D02*
X19058000Y-7620000D01*
X19058000Y-7510000D02*
X18948000Y-7620000D01*
X19058000Y-7565000D02*
G75*
G02*
X18948000Y-7565000I-55000J0D01*
G01*
X18948000Y-7565000D02*
G75*
G02*
X19058000Y-7565000I55000J0D01*
G01*
X18948000Y-7764000D02*
X19058000Y-7874000D01*
X19058000Y-7764000D02*
X18948000Y-7874000D01*
X19058000Y-7819000D02*
G75*
G02*
X18948000Y-7819000I-55000J0D01*
G01*
X18948000Y-7819000D02*
G75*
G02*
X19058000Y-7819000I55000J0D01*
G01*
X18948000Y-8018000D02*
X19058000Y-8128000D01*
X19058000Y-8018000D02*
X18948000Y-8128000D01*
X19058000Y-8073000D02*
G75*
G02*
X18948000Y-8073000I-55000J0D01*
G01*
X18948000Y-8073000D02*
G75*
G02*
X19058000Y-8073000I55000J0D01*
G01*
X18948000Y-8272000D02*
X19058000Y-8382000D01*
X19058000Y-8272000D02*
X18948000Y-8382000D01*
X19058000Y-8327000D02*
G75*
G02*
X18948000Y-8327000I-55000J0D01*
G01*
X18948000Y-8327000D02*
G75*
G02*
X19058000Y-8327000I55000J0D01*
G01*
X18948000Y-8526000D02*
X19058000Y-8636000D01*
X19058000Y-8526000D02*
X18948000Y-8636000D01*
X19058000Y-8581000D02*
G75*
G02*
X18948000Y-8581000I-55000J0D01*
G01*
X18948000Y-8581000D02*
G75*
G02*
X19058000Y-8581000I55000J0D01*
G01*
X18948000Y-8780000D02*
X19058000Y-8890000D01*
X19058000Y-8780000D02*
X18948000Y-8890000D01*
X19058000Y-8835000D02*
G75*
G02*
X18948000Y-8835000I-55000J0D01*
G01*
X18948000Y-8835000D02*
G75*
G02*
X19058000Y-8835000I55000J0D01*
G01*
X18948000Y-9034000D02*
X19058000Y-9144000D01*
X19058000Y-9034000D02*
X18948000Y-9144000D01*
X19058000Y-9089000D02*
G75*
G02*
X18948000Y-9089000I-55000J0D01*
G01*
X18948000Y-9089000D02*
G75*
G02*
X19058000Y-9089000I55000J0D01*
G01*
X18948000Y-9288000D02*
X19058000Y-9398000D01*
X19058000Y-9288000D02*
X18948000Y-9398000D01*
X19058000Y-9343000D02*
G75*
G02*
X18948000Y-9343000I-55000J0D01*
G01*
X18948000Y-9343000D02*
G75*
G02*
X19058000Y-9343000I55000J0D01*
G01*
X18948000Y-9542000D02*
X19058000Y-9652000D01*
X19058000Y-9542000D02*
X18948000Y-9652000D01*
X19058000Y-9597000D02*
G75*
G02*
X18948000Y-9597000I-55000J0D01*
G01*
X18948000Y-9597000D02*
G75*
G02*
X19058000Y-9597000I55000J0D01*
G01*
X18948000Y-9796000D02*
X19058000Y-9906000D01*
X19058000Y-9796000D02*
X18948000Y-9906000D01*
X19058000Y-9851000D02*
G75*
G02*
X18948000Y-9851000I-55000J0D01*
G01*
X18948000Y-9851000D02*
G75*
G02*
X19058000Y-9851000I55000J0D01*
G01*
X18948000Y-10050000D02*
X19058000Y-10160000D01*
X19058000Y-10050000D02*
X18948000Y-10160000D01*
X19058000Y-10105000D02*
G75*
G02*
X18948000Y-10105000I-55000J0D01*
G01*
X18948000Y-10105000D02*
G75*
G02*
X19058000Y-10105000I55000J0D01*
G01*
X18948000Y-10304000D02*
X19058000Y-10414000D01*
X19058000Y-10304000D02*
X18948000Y-10414000D01*
X19058000Y-10359000D02*
G75*
G02*
X18948000Y-10359000I-55000J0D01*
G01*
X18948000Y-10359000D02*
G75*
G02*
X19058000Y-10359000I55000J0D01*
G01*
X18948000Y-10558000D02*
X19058000Y-10668000D01*
X19058000Y-10558000D02*
X18948000Y-10668000D01*
X19058000Y-10613000D02*
G75*
G02*
X18948000Y-10613000I-55000J0D01*
G01*
X18948000Y-10613000D02*
G75*
G02*
X19058000Y-10613000I55000J0D01*
G01*
X18948000Y-10812000D02*
X19058000Y-10922000D01*
X19058000Y-10812000D02*
X18948000Y-10922000D01*
X19058000Y-10867000D02*
G75*
G02*
X18948000Y-10867000I-55000J0D01*
G01*
X18948000Y-10867000D02*
G75*
G02*
X19058000Y-10867000I55000J0D01*
G01*
X18948000Y-11066000D02*
X19058000Y-11176000D01*
X19058000Y-11066000D02*
X18948000Y-11176000D01*
X19058000Y-11121000D02*
G75*
G02*
X18948000Y-11121000I-55000J0D01*
G01*
X18948000Y-11121000D02*
G75*
G02*
X19058000Y-11121000I55000J0D01*
G01*
X18948000Y-11320000D02*
X19058000Y-11430000D01*
X19058000Y-11320000D02*
X18948000Y-11430000D01*
X19058000Y-11375000D02*
G75*
G02*
X18948000Y-11375000I-55000J0D01*
G01*
X18948000Y-11375000D02*
G75*
G02*
X19058000Y-11375000I55000J0D01*
G01*
X18948000Y-11574000D02*
X19058000Y-11684000D01*
X19058000Y-11574000D02*
X18948000Y-11684000D01*
X19058000Y-11629000D02*
G75*
G02*
X18948000Y-11629000I-55000J0D01*
G01*
X18948000Y-11629000D02*
G75*
G02*
X19058000Y-11629000I55000J0D01*
G01*
X19202000Y-10304000D02*
X19312000Y-10414000D01*
X19312000Y-10304000D02*
X19202000Y-10414000D01*
X19312000Y-10359000D02*
G75*
G02*
X19202000Y-10359000I-55000J0D01*
G01*
X19202000Y-10359000D02*
G75*
G02*
X19312000Y-10359000I55000J0D01*
G01*
X19253080Y-6361920D02*
X19363080Y-6471920D01*
X19363080Y-6361920D02*
X19253080Y-6471920D01*
X19363080Y-6416920D02*
G75*
G02*
X19253080Y-6416920I-55000J0D01*
G01*
X19253080Y-6416920D02*
G75*
G02*
X19363080Y-6416920I55000J0D01*
G01*
X19253080Y-6615920D02*
X19363080Y-6725920D01*
X19363080Y-6615920D02*
X19253080Y-6725920D01*
X19363080Y-6670920D02*
G75*
G02*
X19253080Y-6670920I-55000J0D01*
G01*
X19253080Y-6670920D02*
G75*
G02*
X19363080Y-6670920I55000J0D01*
G01*
X19253080Y-6869920D02*
X19363080Y-6979920D01*
X19363080Y-6869920D02*
X19253080Y-6979920D01*
X19363080Y-6924920D02*
G75*
G02*
X19253080Y-6924920I-55000J0D01*
G01*
X19253080Y-6924920D02*
G75*
G02*
X19363080Y-6924920I55000J0D01*
G01*
X19253080Y-7123920D02*
X19363080Y-7233920D01*
X19363080Y-7123920D02*
X19253080Y-7233920D01*
X19363080Y-7178920D02*
G75*
G02*
X19253080Y-7178920I-55000J0D01*
G01*
X19253080Y-7178920D02*
G75*
G02*
X19363080Y-7178920I55000J0D01*
G01*
X19253080Y-7377920D02*
X19363080Y-7487920D01*
X19363080Y-7377920D02*
X19253080Y-7487920D01*
X19363080Y-7432920D02*
G75*
G02*
X19253080Y-7432920I-55000J0D01*
G01*
X19253080Y-7432920D02*
G75*
G02*
X19363080Y-7432920I55000J0D01*
G01*
X19456000Y-10304000D02*
X19566000Y-10414000D01*
X19566000Y-10304000D02*
X19456000Y-10414000D01*
X19566000Y-10359000D02*
G75*
G02*
X19456000Y-10359000I-55000J0D01*
G01*
X19456000Y-10359000D02*
G75*
G02*
X19566000Y-10359000I55000J0D01*
G01*
X19710000Y-10304000D02*
X19820000Y-10414000D01*
X19820000Y-10304000D02*
X19710000Y-10414000D01*
X19820000Y-10359000D02*
G75*
G02*
X19710000Y-10359000I-55000J0D01*
G01*
X19710000Y-10359000D02*
G75*
G02*
X19820000Y-10359000I55000J0D01*
G01*
X19964000Y-10304000D02*
X20074000Y-10414000D01*
X20074000Y-10304000D02*
X19964000Y-10414000D01*
X20074000Y-10359000D02*
G75*
G02*
X19964000Y-10359000I-55000J0D01*
G01*
X19964000Y-10359000D02*
G75*
G02*
X20074000Y-10359000I55000J0D01*
G01*
X20218000Y-5986000D02*
X20328000Y-6096000D01*
X20328000Y-5986000D02*
X20218000Y-6096000D01*
X20328000Y-6041000D02*
G75*
G02*
X20218000Y-6041000I-55000J0D01*
G01*
X20218000Y-6041000D02*
G75*
G02*
X20328000Y-6041000I55000J0D01*
G01*
X20218000Y-10304000D02*
X20328000Y-10414000D01*
X20328000Y-10304000D02*
X20218000Y-10414000D01*
X20328000Y-10359000D02*
G75*
G02*
X20218000Y-10359000I-55000J0D01*
G01*
X20218000Y-10359000D02*
G75*
G02*
X20328000Y-10359000I55000J0D01*
G01*
X20472000Y-5732000D02*
X20582000Y-5842000D01*
X20582000Y-5732000D02*
X20472000Y-5842000D01*
X20582000Y-5787000D02*
G75*
G02*
X20472000Y-5787000I-55000J0D01*
G01*
X20472000Y-5787000D02*
G75*
G02*
X20582000Y-5787000I55000J0D01*
G01*
X20472000Y-5986000D02*
X20582000Y-6096000D01*
X20582000Y-5986000D02*
X20472000Y-6096000D01*
X20582000Y-6041000D02*
G75*
G02*
X20472000Y-6041000I-55000J0D01*
G01*
X20472000Y-6041000D02*
G75*
G02*
X20582000Y-6041000I55000J0D01*
G01*
X20472000Y-6240000D02*
X20582000Y-6350000D01*
X20582000Y-6240000D02*
X20472000Y-6350000D01*
X20582000Y-6295000D02*
G75*
G02*
X20472000Y-6295000I-55000J0D01*
G01*
X20472000Y-6295000D02*
G75*
G02*
X20582000Y-6295000I55000J0D01*
G01*
X20472000Y-6494000D02*
X20582000Y-6604000D01*
X20582000Y-6494000D02*
X20472000Y-6604000D01*
X20582000Y-6549000D02*
G75*
G02*
X20472000Y-6549000I-55000J0D01*
G01*
X20472000Y-6549000D02*
G75*
G02*
X20582000Y-6549000I55000J0D01*
G01*
X20472000Y-6748000D02*
X20582000Y-6858000D01*
X20582000Y-6748000D02*
X20472000Y-6858000D01*
X20582000Y-6803000D02*
G75*
G02*
X20472000Y-6803000I-55000J0D01*
G01*
X20472000Y-6803000D02*
G75*
G02*
X20582000Y-6803000I55000J0D01*
G01*
X20472000Y-7002000D02*
X20582000Y-7112000D01*
X20582000Y-7002000D02*
X20472000Y-7112000D01*
X20582000Y-7057000D02*
G75*
G02*
X20472000Y-7057000I-55000J0D01*
G01*
X20472000Y-7057000D02*
G75*
G02*
X20582000Y-7057000I55000J0D01*
G01*
X20472000Y-7256000D02*
X20582000Y-7366000D01*
X20582000Y-7256000D02*
X20472000Y-7366000D01*
X20582000Y-7311000D02*
G75*
G02*
X20472000Y-7311000I-55000J0D01*
G01*
X20472000Y-7311000D02*
G75*
G02*
X20582000Y-7311000I55000J0D01*
G01*
X20472000Y-7510000D02*
X20582000Y-7620000D01*
X20582000Y-7510000D02*
X20472000Y-7620000D01*
X20582000Y-7565000D02*
G75*
G02*
X20472000Y-7565000I-55000J0D01*
G01*
X20472000Y-7565000D02*
G75*
G02*
X20582000Y-7565000I55000J0D01*
G01*
X20472000Y-7764000D02*
X20582000Y-7874000D01*
X20582000Y-7764000D02*
X20472000Y-7874000D01*
X20582000Y-7819000D02*
G75*
G02*
X20472000Y-7819000I-55000J0D01*
G01*
X20472000Y-7819000D02*
G75*
G02*
X20582000Y-7819000I55000J0D01*
G01*
X20472000Y-8018000D02*
X20582000Y-8128000D01*
X20582000Y-8018000D02*
X20472000Y-8128000D01*
X20582000Y-8073000D02*
G75*
G02*
X20472000Y-8073000I-55000J0D01*
G01*
X20472000Y-8073000D02*
G75*
G02*
X20582000Y-8073000I55000J0D01*
G01*
X20472000Y-8272000D02*
X20582000Y-8382000D01*
X20582000Y-8272000D02*
X20472000Y-8382000D01*
X20582000Y-8327000D02*
G75*
G02*
X20472000Y-8327000I-55000J0D01*
G01*
X20472000Y-8327000D02*
G75*
G02*
X20582000Y-8327000I55000J0D01*
G01*
X20472000Y-8526000D02*
X20582000Y-8636000D01*
X20582000Y-8526000D02*
X20472000Y-8636000D01*
X20582000Y-8581000D02*
G75*
G02*
X20472000Y-8581000I-55000J0D01*
G01*
X20472000Y-8581000D02*
G75*
G02*
X20582000Y-8581000I55000J0D01*
G01*
X20472000Y-8780000D02*
X20582000Y-8890000D01*
X20582000Y-8780000D02*
X20472000Y-8890000D01*
X20582000Y-8835000D02*
G75*
G02*
X20472000Y-8835000I-55000J0D01*
G01*
X20472000Y-8835000D02*
G75*
G02*
X20582000Y-8835000I55000J0D01*
G01*
X20472000Y-9034000D02*
X20582000Y-9144000D01*
X20582000Y-9034000D02*
X20472000Y-9144000D01*
X20582000Y-9089000D02*
G75*
G02*
X20472000Y-9089000I-55000J0D01*
G01*
X20472000Y-9089000D02*
G75*
G02*
X20582000Y-9089000I55000J0D01*
G01*
X20472000Y-9288000D02*
X20582000Y-9398000D01*
X20582000Y-9288000D02*
X20472000Y-9398000D01*
X20582000Y-9343000D02*
G75*
G02*
X20472000Y-9343000I-55000J0D01*
G01*
X20472000Y-9343000D02*
G75*
G02*
X20582000Y-9343000I55000J0D01*
G01*
X20472000Y-9542000D02*
X20582000Y-9652000D01*
X20582000Y-9542000D02*
X20472000Y-9652000D01*
X20582000Y-9597000D02*
G75*
G02*
X20472000Y-9597000I-55000J0D01*
G01*
X20472000Y-9597000D02*
G75*
G02*
X20582000Y-9597000I55000J0D01*
G01*
X20472000Y-9796000D02*
X20582000Y-9906000D01*
X20582000Y-9796000D02*
X20472000Y-9906000D01*
X20582000Y-9851000D02*
G75*
G02*
X20472000Y-9851000I-55000J0D01*
G01*
X20472000Y-9851000D02*
G75*
G02*
X20582000Y-9851000I55000J0D01*
G01*
X20472000Y-10050000D02*
X20582000Y-10160000D01*
X20582000Y-10050000D02*
X20472000Y-10160000D01*
X20582000Y-10105000D02*
G75*
G02*
X20472000Y-10105000I-55000J0D01*
G01*
X20472000Y-10105000D02*
G75*
G02*
X20582000Y-10105000I55000J0D01*
G01*
X20472000Y-10304000D02*
X20582000Y-10414000D01*
X20582000Y-10304000D02*
X20472000Y-10414000D01*
X20582000Y-10359000D02*
G75*
G02*
X20472000Y-10359000I-55000J0D01*
G01*
X20472000Y-10359000D02*
G75*
G02*
X20582000Y-10359000I55000J0D01*
G01*
X20472000Y-10558000D02*
X20582000Y-10668000D01*
X20582000Y-10558000D02*
X20472000Y-10668000D01*
X20582000Y-10613000D02*
G75*
G02*
X20472000Y-10613000I-55000J0D01*
G01*
X20472000Y-10613000D02*
G75*
G02*
X20582000Y-10613000I55000J0D01*
G01*
X20472000Y-10812000D02*
X20582000Y-10922000D01*
X20582000Y-10812000D02*
X20472000Y-10922000D01*
X20582000Y-10867000D02*
G75*
G02*
X20472000Y-10867000I-55000J0D01*
G01*
X20472000Y-10867000D02*
G75*
G02*
X20582000Y-10867000I55000J0D01*
G01*
X20472000Y-11066000D02*
X20582000Y-11176000D01*
X20582000Y-11066000D02*
X20472000Y-11176000D01*
X20582000Y-11121000D02*
G75*
G02*
X20472000Y-11121000I-55000J0D01*
G01*
X20472000Y-11121000D02*
G75*
G02*
X20582000Y-11121000I55000J0D01*
G01*
X20472000Y-11320000D02*
X20582000Y-11430000D01*
X20582000Y-11320000D02*
X20472000Y-11430000D01*
X20582000Y-11375000D02*
G75*
G02*
X20472000Y-11375000I-55000J0D01*
G01*
X20472000Y-11375000D02*
G75*
G02*
X20582000Y-11375000I55000J0D01*
G01*
X20472000Y-11574000D02*
X20582000Y-11684000D01*
X20582000Y-11574000D02*
X20472000Y-11684000D01*
X20582000Y-11629000D02*
G75*
G02*
X20472000Y-11629000I-55000J0D01*
G01*
X20472000Y-11629000D02*
G75*
G02*
X20582000Y-11629000I55000J0D01*
G01*
D16*
X22463000Y-3624000D02*
X22593000Y-3754000D01*
X22593000Y-3624000D02*
X22463000Y-3754000D01*
X22528000Y-3624000D02*
X22528000Y-3754000D01*
X22463000Y-3689000D02*
X22593000Y-3689000D01*
X22463000Y-4124000D02*
X22593000Y-4254000D01*
X22593000Y-4124000D02*
X22463000Y-4254000D01*
X22528000Y-4124000D02*
X22528000Y-4254000D01*
X22463000Y-4189000D02*
X22593000Y-4189000D01*
X22463000Y-4624000D02*
X22593000Y-4754000D01*
X22593000Y-4624000D02*
X22463000Y-4754000D01*
X22528000Y-4624000D02*
X22528000Y-4754000D01*
X22463000Y-4689000D02*
X22593000Y-4689000D01*
X22468000Y-5491000D02*
X22598000Y-5621000D01*
X22598000Y-5491000D02*
X22468000Y-5621000D01*
X22533000Y-5491000D02*
X22533000Y-5621000D01*
X22468000Y-5556000D02*
X22598000Y-5556000D01*
X22468000Y-5991000D02*
X22598000Y-6121000D01*
X22598000Y-5991000D02*
X22468000Y-6121000D01*
X22533000Y-5991000D02*
X22533000Y-6121000D01*
X22468000Y-6056000D02*
X22598000Y-6056000D01*
X22468000Y-6491000D02*
X22598000Y-6621000D01*
X22598000Y-6491000D02*
X22468000Y-6621000D01*
X22533000Y-6491000D02*
X22533000Y-6621000D01*
X22468000Y-6556000D02*
X22598000Y-6556000D01*
X22470000Y-10847000D02*
X22600000Y-10977000D01*
X22600000Y-10847000D02*
X22470000Y-10977000D01*
X22535000Y-10847000D02*
X22535000Y-10977000D01*
X22470000Y-10912000D02*
X22600000Y-10912000D01*
X22470000Y-11347000D02*
X22600000Y-11477000D01*
X22600000Y-11347000D02*
X22470000Y-11477000D01*
X22535000Y-11347000D02*
X22535000Y-11477000D01*
X22470000Y-11412000D02*
X22600000Y-11412000D01*
X22470000Y-11847000D02*
X22600000Y-11977000D01*
X22600000Y-11847000D02*
X22470000Y-11977000D01*
X22535000Y-11847000D02*
X22535000Y-11977000D01*
X22470000Y-11912000D02*
X22600000Y-11912000D01*
X22471000Y-9082000D02*
X22601000Y-9212000D01*
X22601000Y-9082000D02*
X22471000Y-9212000D01*
X22536000Y-9082000D02*
X22536000Y-9212000D01*
X22471000Y-9147000D02*
X22601000Y-9147000D01*
X22471000Y-9582000D02*
X22601000Y-9712000D01*
X22601000Y-9582000D02*
X22471000Y-9712000D01*
X22536000Y-9582000D02*
X22536000Y-9712000D01*
X22471000Y-9647000D02*
X22601000Y-9647000D01*
X22471000Y-10082000D02*
X22601000Y-10212000D01*
X22601000Y-10082000D02*
X22471000Y-10212000D01*
X22536000Y-10082000D02*
X22536000Y-10212000D01*
X22471000Y-10147000D02*
X22601000Y-10147000D01*
X22476000Y-7316000D02*
X22606000Y-7446000D01*
X22606000Y-7316000D02*
X22476000Y-7446000D01*
X22541000Y-7316000D02*
X22541000Y-7446000D01*
X22476000Y-7381000D02*
X22606000Y-7381000D01*
X22476000Y-7816000D02*
X22606000Y-7946000D01*
X22606000Y-7816000D02*
X22476000Y-7946000D01*
X22541000Y-7816000D02*
X22541000Y-7946000D01*
X22476000Y-7881000D02*
X22606000Y-7881000D01*
X22476000Y-8316000D02*
X22606000Y-8446000D01*
X22606000Y-8316000D02*
X22476000Y-8446000D01*
X22541000Y-8316000D02*
X22541000Y-8446000D01*
X22476000Y-8381000D02*
X22606000Y-8381000D01*
D12*
X9758277Y-14439984D02*
X9758277Y-14239984D01*
X9758277Y-14239984D02*
X9805896Y-14239984D01*
X9805896Y-14239984D02*
X9834467Y-14249508D01*
X9834467Y-14249508D02*
X9853515Y-14268555D01*
X9853515Y-14268555D02*
X9863039Y-14287603D01*
X9863039Y-14287603D02*
X9872563Y-14325698D01*
X9872563Y-14325698D02*
X9872563Y-14354269D01*
X9872563Y-14354269D02*
X9863039Y-14392365D01*
X9863039Y-14392365D02*
X9853515Y-14411412D01*
X9853515Y-14411412D02*
X9834467Y-14430460D01*
X9834467Y-14430460D02*
X9805896Y-14439984D01*
X9805896Y-14439984D02*
X9758277Y-14439984D01*
X9958277Y-14439984D02*
X9958277Y-14306650D01*
X9958277Y-14344746D02*
X9967801Y-14325698D01*
X9967801Y-14325698D02*
X9977324Y-14316174D01*
X9977324Y-14316174D02*
X9996372Y-14306650D01*
X9996372Y-14306650D02*
X10015420Y-14306650D01*
X10082086Y-14439984D02*
X10082086Y-14306650D01*
X10082086Y-14239984D02*
X10072563Y-14249508D01*
X10072563Y-14249508D02*
X10082086Y-14259031D01*
X10082086Y-14259031D02*
X10091610Y-14249508D01*
X10091610Y-14249508D02*
X10082086Y-14239984D01*
X10082086Y-14239984D02*
X10082086Y-14259031D01*
X10205896Y-14439984D02*
X10186848Y-14430460D01*
X10186848Y-14430460D02*
X10177324Y-14411412D01*
X10177324Y-14411412D02*
X10177324Y-14239984D01*
X10310658Y-14439984D02*
X10291610Y-14430460D01*
X10291610Y-14430460D02*
X10282086Y-14411412D01*
X10282086Y-14411412D02*
X10282086Y-14239984D01*
X10539229Y-14439984D02*
X10539229Y-14239984D01*
X10539229Y-14239984D02*
X10605896Y-14382841D01*
X10605896Y-14382841D02*
X10672563Y-14239984D01*
X10672563Y-14239984D02*
X10672563Y-14439984D01*
X10853515Y-14439984D02*
X10853515Y-14335222D01*
X10853515Y-14335222D02*
X10843991Y-14316174D01*
X10843991Y-14316174D02*
X10824944Y-14306650D01*
X10824944Y-14306650D02*
X10786848Y-14306650D01*
X10786848Y-14306650D02*
X10767801Y-14316174D01*
X10853515Y-14430460D02*
X10834467Y-14439984D01*
X10834467Y-14439984D02*
X10786848Y-14439984D01*
X10786848Y-14439984D02*
X10767801Y-14430460D01*
X10767801Y-14430460D02*
X10758277Y-14411412D01*
X10758277Y-14411412D02*
X10758277Y-14392365D01*
X10758277Y-14392365D02*
X10767801Y-14373317D01*
X10767801Y-14373317D02*
X10786848Y-14363793D01*
X10786848Y-14363793D02*
X10834467Y-14363793D01*
X10834467Y-14363793D02*
X10853515Y-14354269D01*
X10948753Y-14306650D02*
X10948753Y-14506650D01*
X10948753Y-14316174D02*
X10967801Y-14306650D01*
X10967801Y-14306650D02*
X11005896Y-14306650D01*
X11005896Y-14306650D02*
X11024944Y-14316174D01*
X11024944Y-14316174D02*
X11034467Y-14325698D01*
X11034467Y-14325698D02*
X11043991Y-14344746D01*
X11043991Y-14344746D02*
X11043991Y-14401888D01*
X11043991Y-14401888D02*
X11034467Y-14420936D01*
X11034467Y-14420936D02*
X11024944Y-14430460D01*
X11024944Y-14430460D02*
X11005896Y-14439984D01*
X11005896Y-14439984D02*
X10967801Y-14439984D01*
X10967801Y-14439984D02*
X10948753Y-14430460D01*
X11129705Y-14420936D02*
X11139229Y-14430460D01*
X11139229Y-14430460D02*
X11129705Y-14439984D01*
X11129705Y-14439984D02*
X11120182Y-14430460D01*
X11120182Y-14430460D02*
X11129705Y-14420936D01*
X11129705Y-14420936D02*
X11129705Y-14439984D01*
X11129705Y-14316174D02*
X11139229Y-14325698D01*
X11139229Y-14325698D02*
X11129705Y-14335222D01*
X11129705Y-14335222D02*
X11120182Y-14325698D01*
X11120182Y-14325698D02*
X11129705Y-14316174D01*
X11129705Y-14316174D02*
X11129705Y-14335222D01*
D13*
X9467500Y-14753500D02*
X9497500Y-14783500D01*
X9497500Y-14753500D02*
X9467500Y-14783500D01*
D12*
X9796372Y-14659984D02*
X9815420Y-14659984D01*
X9815420Y-14659984D02*
X9834467Y-14669508D01*
X9834467Y-14669508D02*
X9843991Y-14679031D01*
X9843991Y-14679031D02*
X9853515Y-14698079D01*
X9853515Y-14698079D02*
X9863039Y-14736174D01*
X9863039Y-14736174D02*
X9863039Y-14783793D01*
X9863039Y-14783793D02*
X9853515Y-14821888D01*
X9853515Y-14821888D02*
X9843991Y-14840936D01*
X9843991Y-14840936D02*
X9834467Y-14850460D01*
X9834467Y-14850460D02*
X9815420Y-14859984D01*
X9815420Y-14859984D02*
X9796372Y-14859984D01*
X9796372Y-14859984D02*
X9777324Y-14850460D01*
X9777324Y-14850460D02*
X9767801Y-14840936D01*
X9767801Y-14840936D02*
X9758277Y-14821888D01*
X9758277Y-14821888D02*
X9748753Y-14783793D01*
X9748753Y-14783793D02*
X9748753Y-14736174D01*
X9748753Y-14736174D02*
X9758277Y-14698079D01*
X9758277Y-14698079D02*
X9767801Y-14679031D01*
X9767801Y-14679031D02*
X9777324Y-14669508D01*
X9777324Y-14669508D02*
X9796372Y-14659984D01*
X9948753Y-14840936D02*
X9958277Y-14850460D01*
X9958277Y-14850460D02*
X9948753Y-14859984D01*
X9948753Y-14859984D02*
X9939229Y-14850460D01*
X9939229Y-14850460D02*
X9948753Y-14840936D01*
X9948753Y-14840936D02*
X9948753Y-14859984D01*
X10024944Y-14659984D02*
X10148753Y-14659984D01*
X10148753Y-14659984D02*
X10082086Y-14736174D01*
X10082086Y-14736174D02*
X10110658Y-14736174D01*
X10110658Y-14736174D02*
X10129705Y-14745698D01*
X10129705Y-14745698D02*
X10139229Y-14755222D01*
X10139229Y-14755222D02*
X10148753Y-14774269D01*
X10148753Y-14774269D02*
X10148753Y-14821888D01*
X10148753Y-14821888D02*
X10139229Y-14840936D01*
X10139229Y-14840936D02*
X10129705Y-14850460D01*
X10129705Y-14850460D02*
X10110658Y-14859984D01*
X10110658Y-14859984D02*
X10053515Y-14859984D01*
X10053515Y-14859984D02*
X10034467Y-14850460D01*
X10034467Y-14850460D02*
X10024944Y-14840936D01*
X10272563Y-14659984D02*
X10291610Y-14659984D01*
X10291610Y-14659984D02*
X10310658Y-14669508D01*
X10310658Y-14669508D02*
X10320182Y-14679031D01*
X10320182Y-14679031D02*
X10329705Y-14698079D01*
X10329705Y-14698079D02*
X10339229Y-14736174D01*
X10339229Y-14736174D02*
X10339229Y-14783793D01*
X10339229Y-14783793D02*
X10329705Y-14821888D01*
X10329705Y-14821888D02*
X10320182Y-14840936D01*
X10320182Y-14840936D02*
X10310658Y-14850460D01*
X10310658Y-14850460D02*
X10291610Y-14859984D01*
X10291610Y-14859984D02*
X10272563Y-14859984D01*
X10272563Y-14859984D02*
X10253515Y-14850460D01*
X10253515Y-14850460D02*
X10243991Y-14840936D01*
X10243991Y-14840936D02*
X10234467Y-14821888D01*
X10234467Y-14821888D02*
X10224944Y-14783793D01*
X10224944Y-14783793D02*
X10224944Y-14736174D01*
X10224944Y-14736174D02*
X10234467Y-14698079D01*
X10234467Y-14698079D02*
X10243991Y-14679031D01*
X10243991Y-14679031D02*
X10253515Y-14669508D01*
X10253515Y-14669508D02*
X10272563Y-14659984D01*
X10463039Y-14659984D02*
X10482086Y-14659984D01*
X10482086Y-14659984D02*
X10501134Y-14669508D01*
X10501134Y-14669508D02*
X10510658Y-14679031D01*
X10510658Y-14679031D02*
X10520182Y-14698079D01*
X10520182Y-14698079D02*
X10529705Y-14736174D01*
X10529705Y-14736174D02*
X10529705Y-14783793D01*
X10529705Y-14783793D02*
X10520182Y-14821888D01*
X10520182Y-14821888D02*
X10510658Y-14840936D01*
X10510658Y-14840936D02*
X10501134Y-14850460D01*
X10501134Y-14850460D02*
X10482086Y-14859984D01*
X10482086Y-14859984D02*
X10463039Y-14859984D01*
X10463039Y-14859984D02*
X10443991Y-14850460D01*
X10443991Y-14850460D02*
X10434467Y-14840936D01*
X10434467Y-14840936D02*
X10424944Y-14821888D01*
X10424944Y-14821888D02*
X10415420Y-14783793D01*
X10415420Y-14783793D02*
X10415420Y-14736174D01*
X10415420Y-14736174D02*
X10424944Y-14698079D01*
X10424944Y-14698079D02*
X10434467Y-14679031D01*
X10434467Y-14679031D02*
X10443991Y-14669508D01*
X10443991Y-14669508D02*
X10463039Y-14659984D01*
X10615420Y-14859984D02*
X10615420Y-14726650D01*
X10615420Y-14745698D02*
X10624944Y-14736174D01*
X10624944Y-14736174D02*
X10643991Y-14726650D01*
X10643991Y-14726650D02*
X10672563Y-14726650D01*
X10672563Y-14726650D02*
X10691610Y-14736174D01*
X10691610Y-14736174D02*
X10701134Y-14755222D01*
X10701134Y-14755222D02*
X10701134Y-14859984D01*
X10701134Y-14755222D02*
X10710658Y-14736174D01*
X10710658Y-14736174D02*
X10729705Y-14726650D01*
X10729705Y-14726650D02*
X10758277Y-14726650D01*
X10758277Y-14726650D02*
X10777325Y-14736174D01*
X10777325Y-14736174D02*
X10786848Y-14755222D01*
X10786848Y-14755222D02*
X10786848Y-14859984D01*
X10882086Y-14859984D02*
X10882086Y-14726650D01*
X10882086Y-14745698D02*
X10891610Y-14736174D01*
X10891610Y-14736174D02*
X10910658Y-14726650D01*
X10910658Y-14726650D02*
X10939229Y-14726650D01*
X10939229Y-14726650D02*
X10958277Y-14736174D01*
X10958277Y-14736174D02*
X10967801Y-14755222D01*
X10967801Y-14755222D02*
X10967801Y-14859984D01*
X10967801Y-14755222D02*
X10977325Y-14736174D01*
X10977325Y-14736174D02*
X10996372Y-14726650D01*
X10996372Y-14726650D02*
X11024944Y-14726650D01*
X11024944Y-14726650D02*
X11043991Y-14736174D01*
X11043991Y-14736174D02*
X11053515Y-14755222D01*
X11053515Y-14755222D02*
X11053515Y-14859984D01*
X11443991Y-14650460D02*
X11272563Y-14907603D01*
X11701134Y-14659984D02*
X11720182Y-14659984D01*
X11720182Y-14659984D02*
X11739229Y-14669508D01*
X11739229Y-14669508D02*
X11748753Y-14679031D01*
X11748753Y-14679031D02*
X11758277Y-14698079D01*
X11758277Y-14698079D02*
X11767801Y-14736174D01*
X11767801Y-14736174D02*
X11767801Y-14783793D01*
X11767801Y-14783793D02*
X11758277Y-14821888D01*
X11758277Y-14821888D02*
X11748753Y-14840936D01*
X11748753Y-14840936D02*
X11739229Y-14850460D01*
X11739229Y-14850460D02*
X11720182Y-14859984D01*
X11720182Y-14859984D02*
X11701134Y-14859984D01*
X11701134Y-14859984D02*
X11682086Y-14850460D01*
X11682086Y-14850460D02*
X11672563Y-14840936D01*
X11672563Y-14840936D02*
X11663039Y-14821888D01*
X11663039Y-14821888D02*
X11653515Y-14783793D01*
X11653515Y-14783793D02*
X11653515Y-14736174D01*
X11653515Y-14736174D02*
X11663039Y-14698079D01*
X11663039Y-14698079D02*
X11672563Y-14679031D01*
X11672563Y-14679031D02*
X11682086Y-14669508D01*
X11682086Y-14669508D02*
X11701134Y-14659984D01*
X11853515Y-14840936D02*
X11863039Y-14850460D01*
X11863039Y-14850460D02*
X11853515Y-14859984D01*
X11853515Y-14859984D02*
X11843991Y-14850460D01*
X11843991Y-14850460D02*
X11853515Y-14840936D01*
X11853515Y-14840936D02*
X11853515Y-14859984D01*
X11986848Y-14659984D02*
X12005896Y-14659984D01*
X12005896Y-14659984D02*
X12024944Y-14669508D01*
X12024944Y-14669508D02*
X12034467Y-14679031D01*
X12034467Y-14679031D02*
X12043991Y-14698079D01*
X12043991Y-14698079D02*
X12053515Y-14736174D01*
X12053515Y-14736174D02*
X12053515Y-14783793D01*
X12053515Y-14783793D02*
X12043991Y-14821888D01*
X12043991Y-14821888D02*
X12034467Y-14840936D01*
X12034467Y-14840936D02*
X12024944Y-14850460D01*
X12024944Y-14850460D02*
X12005896Y-14859984D01*
X12005896Y-14859984D02*
X11986848Y-14859984D01*
X11986848Y-14859984D02*
X11967801Y-14850460D01*
X11967801Y-14850460D02*
X11958277Y-14840936D01*
X11958277Y-14840936D02*
X11948753Y-14821888D01*
X11948753Y-14821888D02*
X11939229Y-14783793D01*
X11939229Y-14783793D02*
X11939229Y-14736174D01*
X11939229Y-14736174D02*
X11948753Y-14698079D01*
X11948753Y-14698079D02*
X11958277Y-14679031D01*
X11958277Y-14679031D02*
X11967801Y-14669508D01*
X11967801Y-14669508D02*
X11986848Y-14659984D01*
X12243991Y-14859984D02*
X12129706Y-14859984D01*
X12186848Y-14859984D02*
X12186848Y-14659984D01*
X12186848Y-14659984D02*
X12167801Y-14688555D01*
X12167801Y-14688555D02*
X12148753Y-14707603D01*
X12148753Y-14707603D02*
X12129706Y-14717127D01*
X12434467Y-14859984D02*
X12320182Y-14859984D01*
X12377325Y-14859984D02*
X12377325Y-14659984D01*
X12377325Y-14659984D02*
X12358277Y-14688555D01*
X12358277Y-14688555D02*
X12339229Y-14707603D01*
X12339229Y-14707603D02*
X12320182Y-14717127D01*
X12548753Y-14745698D02*
X12529706Y-14736174D01*
X12529706Y-14736174D02*
X12520182Y-14726650D01*
X12520182Y-14726650D02*
X12510658Y-14707603D01*
X12510658Y-14707603D02*
X12510658Y-14698079D01*
X12510658Y-14698079D02*
X12520182Y-14679031D01*
X12520182Y-14679031D02*
X12529706Y-14669508D01*
X12529706Y-14669508D02*
X12548753Y-14659984D01*
X12548753Y-14659984D02*
X12586848Y-14659984D01*
X12586848Y-14659984D02*
X12605896Y-14669508D01*
X12605896Y-14669508D02*
X12615420Y-14679031D01*
X12615420Y-14679031D02*
X12624944Y-14698079D01*
X12624944Y-14698079D02*
X12624944Y-14707603D01*
X12624944Y-14707603D02*
X12615420Y-14726650D01*
X12615420Y-14726650D02*
X12605896Y-14736174D01*
X12605896Y-14736174D02*
X12586848Y-14745698D01*
X12586848Y-14745698D02*
X12548753Y-14745698D01*
X12548753Y-14745698D02*
X12529706Y-14755222D01*
X12529706Y-14755222D02*
X12520182Y-14764746D01*
X12520182Y-14764746D02*
X12510658Y-14783793D01*
X12510658Y-14783793D02*
X12510658Y-14821888D01*
X12510658Y-14821888D02*
X12520182Y-14840936D01*
X12520182Y-14840936D02*
X12529706Y-14850460D01*
X12529706Y-14850460D02*
X12548753Y-14859984D01*
X12548753Y-14859984D02*
X12586848Y-14859984D01*
X12586848Y-14859984D02*
X12605896Y-14850460D01*
X12605896Y-14850460D02*
X12615420Y-14840936D01*
X12615420Y-14840936D02*
X12624944Y-14821888D01*
X12624944Y-14821888D02*
X12624944Y-14783793D01*
X12624944Y-14783793D02*
X12615420Y-14764746D01*
X12615420Y-14764746D02*
X12605896Y-14755222D01*
X12605896Y-14755222D02*
X12586848Y-14745698D01*
X12701134Y-14659984D02*
X12701134Y-14698079D01*
X12777325Y-14659984D02*
X12777325Y-14698079D01*
X13072563Y-14936174D02*
X13063039Y-14926650D01*
X13063039Y-14926650D02*
X13043991Y-14898079D01*
X13043991Y-14898079D02*
X13034468Y-14879031D01*
X13034468Y-14879031D02*
X13024944Y-14850460D01*
X13024944Y-14850460D02*
X13015420Y-14802841D01*
X13015420Y-14802841D02*
X13015420Y-14764746D01*
X13015420Y-14764746D02*
X13024944Y-14717127D01*
X13024944Y-14717127D02*
X13034468Y-14688555D01*
X13034468Y-14688555D02*
X13043991Y-14669508D01*
X13043991Y-14669508D02*
X13063039Y-14640936D01*
X13063039Y-14640936D02*
X13072563Y-14631412D01*
X13253515Y-14859984D02*
X13139229Y-14859984D01*
X13196372Y-14859984D02*
X13196372Y-14659984D01*
X13196372Y-14659984D02*
X13177325Y-14688555D01*
X13177325Y-14688555D02*
X13158277Y-14707603D01*
X13158277Y-14707603D02*
X13139229Y-14717127D01*
X13424944Y-14726650D02*
X13424944Y-14859984D01*
X13377325Y-14650460D02*
X13329706Y-14793317D01*
X13329706Y-14793317D02*
X13453515Y-14793317D01*
X13682087Y-14859984D02*
X13682087Y-14659984D01*
X13767801Y-14859984D02*
X13767801Y-14755222D01*
X13767801Y-14755222D02*
X13758277Y-14736174D01*
X13758277Y-14736174D02*
X13739230Y-14726650D01*
X13739230Y-14726650D02*
X13710658Y-14726650D01*
X13710658Y-14726650D02*
X13691610Y-14736174D01*
X13691610Y-14736174D02*
X13682087Y-14745698D01*
X13891610Y-14859984D02*
X13872563Y-14850460D01*
X13872563Y-14850460D02*
X13863039Y-14840936D01*
X13863039Y-14840936D02*
X13853515Y-14821888D01*
X13853515Y-14821888D02*
X13853515Y-14764746D01*
X13853515Y-14764746D02*
X13863039Y-14745698D01*
X13863039Y-14745698D02*
X13872563Y-14736174D01*
X13872563Y-14736174D02*
X13891610Y-14726650D01*
X13891610Y-14726650D02*
X13920182Y-14726650D01*
X13920182Y-14726650D02*
X13939230Y-14736174D01*
X13939230Y-14736174D02*
X13948753Y-14745698D01*
X13948753Y-14745698D02*
X13958277Y-14764746D01*
X13958277Y-14764746D02*
X13958277Y-14821888D01*
X13958277Y-14821888D02*
X13948753Y-14840936D01*
X13948753Y-14840936D02*
X13939230Y-14850460D01*
X13939230Y-14850460D02*
X13920182Y-14859984D01*
X13920182Y-14859984D02*
X13891610Y-14859984D01*
X14072563Y-14859984D02*
X14053515Y-14850460D01*
X14053515Y-14850460D02*
X14043991Y-14831412D01*
X14043991Y-14831412D02*
X14043991Y-14659984D01*
X14224944Y-14850460D02*
X14205896Y-14859984D01*
X14205896Y-14859984D02*
X14167801Y-14859984D01*
X14167801Y-14859984D02*
X14148753Y-14850460D01*
X14148753Y-14850460D02*
X14139230Y-14831412D01*
X14139230Y-14831412D02*
X14139230Y-14755222D01*
X14139230Y-14755222D02*
X14148753Y-14736174D01*
X14148753Y-14736174D02*
X14167801Y-14726650D01*
X14167801Y-14726650D02*
X14205896Y-14726650D01*
X14205896Y-14726650D02*
X14224944Y-14736174D01*
X14224944Y-14736174D02*
X14234468Y-14755222D01*
X14234468Y-14755222D02*
X14234468Y-14774269D01*
X14234468Y-14774269D02*
X14139230Y-14793317D01*
X14310658Y-14850460D02*
X14329706Y-14859984D01*
X14329706Y-14859984D02*
X14367801Y-14859984D01*
X14367801Y-14859984D02*
X14386849Y-14850460D01*
X14386849Y-14850460D02*
X14396372Y-14831412D01*
X14396372Y-14831412D02*
X14396372Y-14821888D01*
X14396372Y-14821888D02*
X14386849Y-14802841D01*
X14386849Y-14802841D02*
X14367801Y-14793317D01*
X14367801Y-14793317D02*
X14339230Y-14793317D01*
X14339230Y-14793317D02*
X14320182Y-14783793D01*
X14320182Y-14783793D02*
X14310658Y-14764746D01*
X14310658Y-14764746D02*
X14310658Y-14755222D01*
X14310658Y-14755222D02*
X14320182Y-14736174D01*
X14320182Y-14736174D02*
X14339230Y-14726650D01*
X14339230Y-14726650D02*
X14367801Y-14726650D01*
X14367801Y-14726650D02*
X14386849Y-14736174D01*
X14463039Y-14936174D02*
X14472563Y-14926650D01*
X14472563Y-14926650D02*
X14491611Y-14898079D01*
X14491611Y-14898079D02*
X14501134Y-14879031D01*
X14501134Y-14879031D02*
X14510658Y-14850460D01*
X14510658Y-14850460D02*
X14520182Y-14802841D01*
X14520182Y-14802841D02*
X14520182Y-14764746D01*
X14520182Y-14764746D02*
X14510658Y-14717127D01*
X14510658Y-14717127D02*
X14501134Y-14688555D01*
X14501134Y-14688555D02*
X14491611Y-14669508D01*
X14491611Y-14669508D02*
X14472563Y-14640936D01*
X14472563Y-14640936D02*
X14463039Y-14631412D01*
D13*
X9497500Y-15032500D02*
G75*
G02*
X9427500Y-15032500I-35000J0D01*
G01*
X9427500Y-15032500D02*
G75*
G02*
X9497500Y-15032500I35000J0D01*
G01*
D12*
X9796372Y-14923984D02*
X9815420Y-14923984D01*
X9815420Y-14923984D02*
X9834467Y-14933508D01*
X9834467Y-14933508D02*
X9843991Y-14943031D01*
X9843991Y-14943031D02*
X9853515Y-14962079D01*
X9853515Y-14962079D02*
X9863039Y-15000174D01*
X9863039Y-15000174D02*
X9863039Y-15047793D01*
X9863039Y-15047793D02*
X9853515Y-15085888D01*
X9853515Y-15085888D02*
X9843991Y-15104936D01*
X9843991Y-15104936D02*
X9834467Y-15114460D01*
X9834467Y-15114460D02*
X9815420Y-15123984D01*
X9815420Y-15123984D02*
X9796372Y-15123984D01*
X9796372Y-15123984D02*
X9777324Y-15114460D01*
X9777324Y-15114460D02*
X9767801Y-15104936D01*
X9767801Y-15104936D02*
X9758277Y-15085888D01*
X9758277Y-15085888D02*
X9748753Y-15047793D01*
X9748753Y-15047793D02*
X9748753Y-15000174D01*
X9748753Y-15000174D02*
X9758277Y-14962079D01*
X9758277Y-14962079D02*
X9767801Y-14943031D01*
X9767801Y-14943031D02*
X9777324Y-14933508D01*
X9777324Y-14933508D02*
X9796372Y-14923984D01*
X9948753Y-15104936D02*
X9958277Y-15114460D01*
X9958277Y-15114460D02*
X9948753Y-15123984D01*
X9948753Y-15123984D02*
X9939229Y-15114460D01*
X9939229Y-15114460D02*
X9948753Y-15104936D01*
X9948753Y-15104936D02*
X9948753Y-15123984D01*
X10024944Y-14923984D02*
X10158277Y-14923984D01*
X10158277Y-14923984D02*
X10072563Y-15123984D01*
X10272563Y-14923984D02*
X10291610Y-14923984D01*
X10291610Y-14923984D02*
X10310658Y-14933508D01*
X10310658Y-14933508D02*
X10320182Y-14943031D01*
X10320182Y-14943031D02*
X10329705Y-14962079D01*
X10329705Y-14962079D02*
X10339229Y-15000174D01*
X10339229Y-15000174D02*
X10339229Y-15047793D01*
X10339229Y-15047793D02*
X10329705Y-15085888D01*
X10329705Y-15085888D02*
X10320182Y-15104936D01*
X10320182Y-15104936D02*
X10310658Y-15114460D01*
X10310658Y-15114460D02*
X10291610Y-15123984D01*
X10291610Y-15123984D02*
X10272563Y-15123984D01*
X10272563Y-15123984D02*
X10253515Y-15114460D01*
X10253515Y-15114460D02*
X10243991Y-15104936D01*
X10243991Y-15104936D02*
X10234467Y-15085888D01*
X10234467Y-15085888D02*
X10224944Y-15047793D01*
X10224944Y-15047793D02*
X10224944Y-15000174D01*
X10224944Y-15000174D02*
X10234467Y-14962079D01*
X10234467Y-14962079D02*
X10243991Y-14943031D01*
X10243991Y-14943031D02*
X10253515Y-14933508D01*
X10253515Y-14933508D02*
X10272563Y-14923984D01*
X10463039Y-14923984D02*
X10482086Y-14923984D01*
X10482086Y-14923984D02*
X10501134Y-14933508D01*
X10501134Y-14933508D02*
X10510658Y-14943031D01*
X10510658Y-14943031D02*
X10520182Y-14962079D01*
X10520182Y-14962079D02*
X10529705Y-15000174D01*
X10529705Y-15000174D02*
X10529705Y-15047793D01*
X10529705Y-15047793D02*
X10520182Y-15085888D01*
X10520182Y-15085888D02*
X10510658Y-15104936D01*
X10510658Y-15104936D02*
X10501134Y-15114460D01*
X10501134Y-15114460D02*
X10482086Y-15123984D01*
X10482086Y-15123984D02*
X10463039Y-15123984D01*
X10463039Y-15123984D02*
X10443991Y-15114460D01*
X10443991Y-15114460D02*
X10434467Y-15104936D01*
X10434467Y-15104936D02*
X10424944Y-15085888D01*
X10424944Y-15085888D02*
X10415420Y-15047793D01*
X10415420Y-15047793D02*
X10415420Y-15000174D01*
X10415420Y-15000174D02*
X10424944Y-14962079D01*
X10424944Y-14962079D02*
X10434467Y-14943031D01*
X10434467Y-14943031D02*
X10443991Y-14933508D01*
X10443991Y-14933508D02*
X10463039Y-14923984D01*
X10615420Y-15123984D02*
X10615420Y-14990650D01*
X10615420Y-15009698D02*
X10624944Y-15000174D01*
X10624944Y-15000174D02*
X10643991Y-14990650D01*
X10643991Y-14990650D02*
X10672563Y-14990650D01*
X10672563Y-14990650D02*
X10691610Y-15000174D01*
X10691610Y-15000174D02*
X10701134Y-15019222D01*
X10701134Y-15019222D02*
X10701134Y-15123984D01*
X10701134Y-15019222D02*
X10710658Y-15000174D01*
X10710658Y-15000174D02*
X10729705Y-14990650D01*
X10729705Y-14990650D02*
X10758277Y-14990650D01*
X10758277Y-14990650D02*
X10777325Y-15000174D01*
X10777325Y-15000174D02*
X10786848Y-15019222D01*
X10786848Y-15019222D02*
X10786848Y-15123984D01*
X10882086Y-15123984D02*
X10882086Y-14990650D01*
X10882086Y-15009698D02*
X10891610Y-15000174D01*
X10891610Y-15000174D02*
X10910658Y-14990650D01*
X10910658Y-14990650D02*
X10939229Y-14990650D01*
X10939229Y-14990650D02*
X10958277Y-15000174D01*
X10958277Y-15000174D02*
X10967801Y-15019222D01*
X10967801Y-15019222D02*
X10967801Y-15123984D01*
X10967801Y-15019222D02*
X10977325Y-15000174D01*
X10977325Y-15000174D02*
X10996372Y-14990650D01*
X10996372Y-14990650D02*
X11024944Y-14990650D01*
X11024944Y-14990650D02*
X11043991Y-15000174D01*
X11043991Y-15000174D02*
X11053515Y-15019222D01*
X11053515Y-15019222D02*
X11053515Y-15123984D01*
X11443991Y-14914460D02*
X11272563Y-15171603D01*
X11701134Y-14923984D02*
X11720182Y-14923984D01*
X11720182Y-14923984D02*
X11739229Y-14933508D01*
X11739229Y-14933508D02*
X11748753Y-14943031D01*
X11748753Y-14943031D02*
X11758277Y-14962079D01*
X11758277Y-14962079D02*
X11767801Y-15000174D01*
X11767801Y-15000174D02*
X11767801Y-15047793D01*
X11767801Y-15047793D02*
X11758277Y-15085888D01*
X11758277Y-15085888D02*
X11748753Y-15104936D01*
X11748753Y-15104936D02*
X11739229Y-15114460D01*
X11739229Y-15114460D02*
X11720182Y-15123984D01*
X11720182Y-15123984D02*
X11701134Y-15123984D01*
X11701134Y-15123984D02*
X11682086Y-15114460D01*
X11682086Y-15114460D02*
X11672563Y-15104936D01*
X11672563Y-15104936D02*
X11663039Y-15085888D01*
X11663039Y-15085888D02*
X11653515Y-15047793D01*
X11653515Y-15047793D02*
X11653515Y-15000174D01*
X11653515Y-15000174D02*
X11663039Y-14962079D01*
X11663039Y-14962079D02*
X11672563Y-14943031D01*
X11672563Y-14943031D02*
X11682086Y-14933508D01*
X11682086Y-14933508D02*
X11701134Y-14923984D01*
X11853515Y-15104936D02*
X11863039Y-15114460D01*
X11863039Y-15114460D02*
X11853515Y-15123984D01*
X11853515Y-15123984D02*
X11843991Y-15114460D01*
X11843991Y-15114460D02*
X11853515Y-15104936D01*
X11853515Y-15104936D02*
X11853515Y-15123984D01*
X11986848Y-14923984D02*
X12005896Y-14923984D01*
X12005896Y-14923984D02*
X12024944Y-14933508D01*
X12024944Y-14933508D02*
X12034467Y-14943031D01*
X12034467Y-14943031D02*
X12043991Y-14962079D01*
X12043991Y-14962079D02*
X12053515Y-15000174D01*
X12053515Y-15000174D02*
X12053515Y-15047793D01*
X12053515Y-15047793D02*
X12043991Y-15085888D01*
X12043991Y-15085888D02*
X12034467Y-15104936D01*
X12034467Y-15104936D02*
X12024944Y-15114460D01*
X12024944Y-15114460D02*
X12005896Y-15123984D01*
X12005896Y-15123984D02*
X11986848Y-15123984D01*
X11986848Y-15123984D02*
X11967801Y-15114460D01*
X11967801Y-15114460D02*
X11958277Y-15104936D01*
X11958277Y-15104936D02*
X11948753Y-15085888D01*
X11948753Y-15085888D02*
X11939229Y-15047793D01*
X11939229Y-15047793D02*
X11939229Y-15000174D01*
X11939229Y-15000174D02*
X11948753Y-14962079D01*
X11948753Y-14962079D02*
X11958277Y-14943031D01*
X11958277Y-14943031D02*
X11967801Y-14933508D01*
X11967801Y-14933508D02*
X11986848Y-14923984D01*
X12129706Y-14943031D02*
X12139229Y-14933508D01*
X12139229Y-14933508D02*
X12158277Y-14923984D01*
X12158277Y-14923984D02*
X12205896Y-14923984D01*
X12205896Y-14923984D02*
X12224944Y-14933508D01*
X12224944Y-14933508D02*
X12234467Y-14943031D01*
X12234467Y-14943031D02*
X12243991Y-14962079D01*
X12243991Y-14962079D02*
X12243991Y-14981127D01*
X12243991Y-14981127D02*
X12234467Y-15009698D01*
X12234467Y-15009698D02*
X12120182Y-15123984D01*
X12120182Y-15123984D02*
X12243991Y-15123984D01*
X12310658Y-14923984D02*
X12443991Y-14923984D01*
X12443991Y-14923984D02*
X12358277Y-15123984D01*
X12605896Y-14923984D02*
X12567801Y-14923984D01*
X12567801Y-14923984D02*
X12548753Y-14933508D01*
X12548753Y-14933508D02*
X12539229Y-14943031D01*
X12539229Y-14943031D02*
X12520182Y-14971603D01*
X12520182Y-14971603D02*
X12510658Y-15009698D01*
X12510658Y-15009698D02*
X12510658Y-15085888D01*
X12510658Y-15085888D02*
X12520182Y-15104936D01*
X12520182Y-15104936D02*
X12529706Y-15114460D01*
X12529706Y-15114460D02*
X12548753Y-15123984D01*
X12548753Y-15123984D02*
X12586848Y-15123984D01*
X12586848Y-15123984D02*
X12605896Y-15114460D01*
X12605896Y-15114460D02*
X12615420Y-15104936D01*
X12615420Y-15104936D02*
X12624944Y-15085888D01*
X12624944Y-15085888D02*
X12624944Y-15038269D01*
X12624944Y-15038269D02*
X12615420Y-15019222D01*
X12615420Y-15019222D02*
X12605896Y-15009698D01*
X12605896Y-15009698D02*
X12586848Y-15000174D01*
X12586848Y-15000174D02*
X12548753Y-15000174D01*
X12548753Y-15000174D02*
X12529706Y-15009698D01*
X12529706Y-15009698D02*
X12520182Y-15019222D01*
X12520182Y-15019222D02*
X12510658Y-15038269D01*
X12701134Y-14923984D02*
X12701134Y-14962079D01*
X12777325Y-14923984D02*
X12777325Y-14962079D01*
X13072563Y-15200174D02*
X13063039Y-15190650D01*
X13063039Y-15190650D02*
X13043991Y-15162079D01*
X13043991Y-15162079D02*
X13034468Y-15143031D01*
X13034468Y-15143031D02*
X13024944Y-15114460D01*
X13024944Y-15114460D02*
X13015420Y-15066841D01*
X13015420Y-15066841D02*
X13015420Y-15028746D01*
X13015420Y-15028746D02*
X13024944Y-14981127D01*
X13024944Y-14981127D02*
X13034468Y-14952555D01*
X13034468Y-14952555D02*
X13043991Y-14933508D01*
X13043991Y-14933508D02*
X13063039Y-14904936D01*
X13063039Y-14904936D02*
X13072563Y-14895412D01*
X13139229Y-14943031D02*
X13148753Y-14933508D01*
X13148753Y-14933508D02*
X13167801Y-14923984D01*
X13167801Y-14923984D02*
X13215420Y-14923984D01*
X13215420Y-14923984D02*
X13234468Y-14933508D01*
X13234468Y-14933508D02*
X13243991Y-14943031D01*
X13243991Y-14943031D02*
X13253515Y-14962079D01*
X13253515Y-14962079D02*
X13253515Y-14981127D01*
X13253515Y-14981127D02*
X13243991Y-15009698D01*
X13243991Y-15009698D02*
X13129706Y-15123984D01*
X13129706Y-15123984D02*
X13253515Y-15123984D01*
X13491610Y-15123984D02*
X13491610Y-14923984D01*
X13577325Y-15123984D02*
X13577325Y-15019222D01*
X13577325Y-15019222D02*
X13567801Y-15000174D01*
X13567801Y-15000174D02*
X13548753Y-14990650D01*
X13548753Y-14990650D02*
X13520182Y-14990650D01*
X13520182Y-14990650D02*
X13501134Y-15000174D01*
X13501134Y-15000174D02*
X13491610Y-15009698D01*
X13701134Y-15123984D02*
X13682087Y-15114460D01*
X13682087Y-15114460D02*
X13672563Y-15104936D01*
X13672563Y-15104936D02*
X13663039Y-15085888D01*
X13663039Y-15085888D02*
X13663039Y-15028746D01*
X13663039Y-15028746D02*
X13672563Y-15009698D01*
X13672563Y-15009698D02*
X13682087Y-15000174D01*
X13682087Y-15000174D02*
X13701134Y-14990650D01*
X13701134Y-14990650D02*
X13729706Y-14990650D01*
X13729706Y-14990650D02*
X13748753Y-15000174D01*
X13748753Y-15000174D02*
X13758277Y-15009698D01*
X13758277Y-15009698D02*
X13767801Y-15028746D01*
X13767801Y-15028746D02*
X13767801Y-15085888D01*
X13767801Y-15085888D02*
X13758277Y-15104936D01*
X13758277Y-15104936D02*
X13748753Y-15114460D01*
X13748753Y-15114460D02*
X13729706Y-15123984D01*
X13729706Y-15123984D02*
X13701134Y-15123984D01*
X13882087Y-15123984D02*
X13863039Y-15114460D01*
X13863039Y-15114460D02*
X13853515Y-15095412D01*
X13853515Y-15095412D02*
X13853515Y-14923984D01*
X14034468Y-15114460D02*
X14015420Y-15123984D01*
X14015420Y-15123984D02*
X13977325Y-15123984D01*
X13977325Y-15123984D02*
X13958277Y-15114460D01*
X13958277Y-15114460D02*
X13948753Y-15095412D01*
X13948753Y-15095412D02*
X13948753Y-15019222D01*
X13948753Y-15019222D02*
X13958277Y-15000174D01*
X13958277Y-15000174D02*
X13977325Y-14990650D01*
X13977325Y-14990650D02*
X14015420Y-14990650D01*
X14015420Y-14990650D02*
X14034468Y-15000174D01*
X14034468Y-15000174D02*
X14043991Y-15019222D01*
X14043991Y-15019222D02*
X14043991Y-15038269D01*
X14043991Y-15038269D02*
X13948753Y-15057317D01*
X14120182Y-15114460D02*
X14139230Y-15123984D01*
X14139230Y-15123984D02*
X14177325Y-15123984D01*
X14177325Y-15123984D02*
X14196372Y-15114460D01*
X14196372Y-15114460D02*
X14205896Y-15095412D01*
X14205896Y-15095412D02*
X14205896Y-15085888D01*
X14205896Y-15085888D02*
X14196372Y-15066841D01*
X14196372Y-15066841D02*
X14177325Y-15057317D01*
X14177325Y-15057317D02*
X14148753Y-15057317D01*
X14148753Y-15057317D02*
X14129706Y-15047793D01*
X14129706Y-15047793D02*
X14120182Y-15028746D01*
X14120182Y-15028746D02*
X14120182Y-15019222D01*
X14120182Y-15019222D02*
X14129706Y-15000174D01*
X14129706Y-15000174D02*
X14148753Y-14990650D01*
X14148753Y-14990650D02*
X14177325Y-14990650D01*
X14177325Y-14990650D02*
X14196372Y-15000174D01*
X14272563Y-15200174D02*
X14282087Y-15190650D01*
X14282087Y-15190650D02*
X14301134Y-15162079D01*
X14301134Y-15162079D02*
X14310658Y-15143031D01*
X14310658Y-15143031D02*
X14320182Y-15114460D01*
X14320182Y-15114460D02*
X14329706Y-15066841D01*
X14329706Y-15066841D02*
X14329706Y-15028746D01*
X14329706Y-15028746D02*
X14320182Y-14981127D01*
X14320182Y-14981127D02*
X14310658Y-14952555D01*
X14310658Y-14952555D02*
X14301134Y-14933508D01*
X14301134Y-14933508D02*
X14282087Y-14904936D01*
X14282087Y-14904936D02*
X14272563Y-14895412D01*
D13*
X9457500Y-15256500D02*
X9457500Y-15336500D01*
X9417500Y-15296500D02*
X9497500Y-15296500D01*
D12*
X9796372Y-15187984D02*
X9815420Y-15187984D01*
X9815420Y-15187984D02*
X9834467Y-15197508D01*
X9834467Y-15197508D02*
X9843991Y-15207031D01*
X9843991Y-15207031D02*
X9853515Y-15226079D01*
X9853515Y-15226079D02*
X9863039Y-15264174D01*
X9863039Y-15264174D02*
X9863039Y-15311793D01*
X9863039Y-15311793D02*
X9853515Y-15349888D01*
X9853515Y-15349888D02*
X9843991Y-15368936D01*
X9843991Y-15368936D02*
X9834467Y-15378460D01*
X9834467Y-15378460D02*
X9815420Y-15387984D01*
X9815420Y-15387984D02*
X9796372Y-15387984D01*
X9796372Y-15387984D02*
X9777324Y-15378460D01*
X9777324Y-15378460D02*
X9767801Y-15368936D01*
X9767801Y-15368936D02*
X9758277Y-15349888D01*
X9758277Y-15349888D02*
X9748753Y-15311793D01*
X9748753Y-15311793D02*
X9748753Y-15264174D01*
X9748753Y-15264174D02*
X9758277Y-15226079D01*
X9758277Y-15226079D02*
X9767801Y-15207031D01*
X9767801Y-15207031D02*
X9777324Y-15197508D01*
X9777324Y-15197508D02*
X9796372Y-15187984D01*
X9948753Y-15368936D02*
X9958277Y-15378460D01*
X9958277Y-15378460D02*
X9948753Y-15387984D01*
X9948753Y-15387984D02*
X9939229Y-15378460D01*
X9939229Y-15378460D02*
X9948753Y-15368936D01*
X9948753Y-15368936D02*
X9948753Y-15387984D01*
X10072563Y-15273698D02*
X10053515Y-15264174D01*
X10053515Y-15264174D02*
X10043991Y-15254650D01*
X10043991Y-15254650D02*
X10034467Y-15235603D01*
X10034467Y-15235603D02*
X10034467Y-15226079D01*
X10034467Y-15226079D02*
X10043991Y-15207031D01*
X10043991Y-15207031D02*
X10053515Y-15197508D01*
X10053515Y-15197508D02*
X10072563Y-15187984D01*
X10072563Y-15187984D02*
X10110658Y-15187984D01*
X10110658Y-15187984D02*
X10129705Y-15197508D01*
X10129705Y-15197508D02*
X10139229Y-15207031D01*
X10139229Y-15207031D02*
X10148753Y-15226079D01*
X10148753Y-15226079D02*
X10148753Y-15235603D01*
X10148753Y-15235603D02*
X10139229Y-15254650D01*
X10139229Y-15254650D02*
X10129705Y-15264174D01*
X10129705Y-15264174D02*
X10110658Y-15273698D01*
X10110658Y-15273698D02*
X10072563Y-15273698D01*
X10072563Y-15273698D02*
X10053515Y-15283222D01*
X10053515Y-15283222D02*
X10043991Y-15292746D01*
X10043991Y-15292746D02*
X10034467Y-15311793D01*
X10034467Y-15311793D02*
X10034467Y-15349888D01*
X10034467Y-15349888D02*
X10043991Y-15368936D01*
X10043991Y-15368936D02*
X10053515Y-15378460D01*
X10053515Y-15378460D02*
X10072563Y-15387984D01*
X10072563Y-15387984D02*
X10110658Y-15387984D01*
X10110658Y-15387984D02*
X10129705Y-15378460D01*
X10129705Y-15378460D02*
X10139229Y-15368936D01*
X10139229Y-15368936D02*
X10148753Y-15349888D01*
X10148753Y-15349888D02*
X10148753Y-15311793D01*
X10148753Y-15311793D02*
X10139229Y-15292746D01*
X10139229Y-15292746D02*
X10129705Y-15283222D01*
X10129705Y-15283222D02*
X10110658Y-15273698D01*
X10272563Y-15187984D02*
X10291610Y-15187984D01*
X10291610Y-15187984D02*
X10310658Y-15197508D01*
X10310658Y-15197508D02*
X10320182Y-15207031D01*
X10320182Y-15207031D02*
X10329705Y-15226079D01*
X10329705Y-15226079D02*
X10339229Y-15264174D01*
X10339229Y-15264174D02*
X10339229Y-15311793D01*
X10339229Y-15311793D02*
X10329705Y-15349888D01*
X10329705Y-15349888D02*
X10320182Y-15368936D01*
X10320182Y-15368936D02*
X10310658Y-15378460D01*
X10310658Y-15378460D02*
X10291610Y-15387984D01*
X10291610Y-15387984D02*
X10272563Y-15387984D01*
X10272563Y-15387984D02*
X10253515Y-15378460D01*
X10253515Y-15378460D02*
X10243991Y-15368936D01*
X10243991Y-15368936D02*
X10234467Y-15349888D01*
X10234467Y-15349888D02*
X10224944Y-15311793D01*
X10224944Y-15311793D02*
X10224944Y-15264174D01*
X10224944Y-15264174D02*
X10234467Y-15226079D01*
X10234467Y-15226079D02*
X10243991Y-15207031D01*
X10243991Y-15207031D02*
X10253515Y-15197508D01*
X10253515Y-15197508D02*
X10272563Y-15187984D01*
X10463039Y-15187984D02*
X10482086Y-15187984D01*
X10482086Y-15187984D02*
X10501134Y-15197508D01*
X10501134Y-15197508D02*
X10510658Y-15207031D01*
X10510658Y-15207031D02*
X10520182Y-15226079D01*
X10520182Y-15226079D02*
X10529705Y-15264174D01*
X10529705Y-15264174D02*
X10529705Y-15311793D01*
X10529705Y-15311793D02*
X10520182Y-15349888D01*
X10520182Y-15349888D02*
X10510658Y-15368936D01*
X10510658Y-15368936D02*
X10501134Y-15378460D01*
X10501134Y-15378460D02*
X10482086Y-15387984D01*
X10482086Y-15387984D02*
X10463039Y-15387984D01*
X10463039Y-15387984D02*
X10443991Y-15378460D01*
X10443991Y-15378460D02*
X10434467Y-15368936D01*
X10434467Y-15368936D02*
X10424944Y-15349888D01*
X10424944Y-15349888D02*
X10415420Y-15311793D01*
X10415420Y-15311793D02*
X10415420Y-15264174D01*
X10415420Y-15264174D02*
X10424944Y-15226079D01*
X10424944Y-15226079D02*
X10434467Y-15207031D01*
X10434467Y-15207031D02*
X10443991Y-15197508D01*
X10443991Y-15197508D02*
X10463039Y-15187984D01*
X10615420Y-15387984D02*
X10615420Y-15254650D01*
X10615420Y-15273698D02*
X10624944Y-15264174D01*
X10624944Y-15264174D02*
X10643991Y-15254650D01*
X10643991Y-15254650D02*
X10672563Y-15254650D01*
X10672563Y-15254650D02*
X10691610Y-15264174D01*
X10691610Y-15264174D02*
X10701134Y-15283222D01*
X10701134Y-15283222D02*
X10701134Y-15387984D01*
X10701134Y-15283222D02*
X10710658Y-15264174D01*
X10710658Y-15264174D02*
X10729705Y-15254650D01*
X10729705Y-15254650D02*
X10758277Y-15254650D01*
X10758277Y-15254650D02*
X10777325Y-15264174D01*
X10777325Y-15264174D02*
X10786848Y-15283222D01*
X10786848Y-15283222D02*
X10786848Y-15387984D01*
X10882086Y-15387984D02*
X10882086Y-15254650D01*
X10882086Y-15273698D02*
X10891610Y-15264174D01*
X10891610Y-15264174D02*
X10910658Y-15254650D01*
X10910658Y-15254650D02*
X10939229Y-15254650D01*
X10939229Y-15254650D02*
X10958277Y-15264174D01*
X10958277Y-15264174D02*
X10967801Y-15283222D01*
X10967801Y-15283222D02*
X10967801Y-15387984D01*
X10967801Y-15283222D02*
X10977325Y-15264174D01*
X10977325Y-15264174D02*
X10996372Y-15254650D01*
X10996372Y-15254650D02*
X11024944Y-15254650D01*
X11024944Y-15254650D02*
X11043991Y-15264174D01*
X11043991Y-15264174D02*
X11053515Y-15283222D01*
X11053515Y-15283222D02*
X11053515Y-15387984D01*
X11443991Y-15178460D02*
X11272563Y-15435603D01*
X11701134Y-15187984D02*
X11720182Y-15187984D01*
X11720182Y-15187984D02*
X11739229Y-15197508D01*
X11739229Y-15197508D02*
X11748753Y-15207031D01*
X11748753Y-15207031D02*
X11758277Y-15226079D01*
X11758277Y-15226079D02*
X11767801Y-15264174D01*
X11767801Y-15264174D02*
X11767801Y-15311793D01*
X11767801Y-15311793D02*
X11758277Y-15349888D01*
X11758277Y-15349888D02*
X11748753Y-15368936D01*
X11748753Y-15368936D02*
X11739229Y-15378460D01*
X11739229Y-15378460D02*
X11720182Y-15387984D01*
X11720182Y-15387984D02*
X11701134Y-15387984D01*
X11701134Y-15387984D02*
X11682086Y-15378460D01*
X11682086Y-15378460D02*
X11672563Y-15368936D01*
X11672563Y-15368936D02*
X11663039Y-15349888D01*
X11663039Y-15349888D02*
X11653515Y-15311793D01*
X11653515Y-15311793D02*
X11653515Y-15264174D01*
X11653515Y-15264174D02*
X11663039Y-15226079D01*
X11663039Y-15226079D02*
X11672563Y-15207031D01*
X11672563Y-15207031D02*
X11682086Y-15197508D01*
X11682086Y-15197508D02*
X11701134Y-15187984D01*
X11853515Y-15368936D02*
X11863039Y-15378460D01*
X11863039Y-15378460D02*
X11853515Y-15387984D01*
X11853515Y-15387984D02*
X11843991Y-15378460D01*
X11843991Y-15378460D02*
X11853515Y-15368936D01*
X11853515Y-15368936D02*
X11853515Y-15387984D01*
X11986848Y-15187984D02*
X12005896Y-15187984D01*
X12005896Y-15187984D02*
X12024944Y-15197508D01*
X12024944Y-15197508D02*
X12034467Y-15207031D01*
X12034467Y-15207031D02*
X12043991Y-15226079D01*
X12043991Y-15226079D02*
X12053515Y-15264174D01*
X12053515Y-15264174D02*
X12053515Y-15311793D01*
X12053515Y-15311793D02*
X12043991Y-15349888D01*
X12043991Y-15349888D02*
X12034467Y-15368936D01*
X12034467Y-15368936D02*
X12024944Y-15378460D01*
X12024944Y-15378460D02*
X12005896Y-15387984D01*
X12005896Y-15387984D02*
X11986848Y-15387984D01*
X11986848Y-15387984D02*
X11967801Y-15378460D01*
X11967801Y-15378460D02*
X11958277Y-15368936D01*
X11958277Y-15368936D02*
X11948753Y-15349888D01*
X11948753Y-15349888D02*
X11939229Y-15311793D01*
X11939229Y-15311793D02*
X11939229Y-15264174D01*
X11939229Y-15264174D02*
X11948753Y-15226079D01*
X11948753Y-15226079D02*
X11958277Y-15207031D01*
X11958277Y-15207031D02*
X11967801Y-15197508D01*
X11967801Y-15197508D02*
X11986848Y-15187984D01*
X12120182Y-15187984D02*
X12243991Y-15187984D01*
X12243991Y-15187984D02*
X12177325Y-15264174D01*
X12177325Y-15264174D02*
X12205896Y-15264174D01*
X12205896Y-15264174D02*
X12224944Y-15273698D01*
X12224944Y-15273698D02*
X12234467Y-15283222D01*
X12234467Y-15283222D02*
X12243991Y-15302269D01*
X12243991Y-15302269D02*
X12243991Y-15349888D01*
X12243991Y-15349888D02*
X12234467Y-15368936D01*
X12234467Y-15368936D02*
X12224944Y-15378460D01*
X12224944Y-15378460D02*
X12205896Y-15387984D01*
X12205896Y-15387984D02*
X12148753Y-15387984D01*
X12148753Y-15387984D02*
X12129706Y-15378460D01*
X12129706Y-15378460D02*
X12120182Y-15368936D01*
X12434467Y-15387984D02*
X12320182Y-15387984D01*
X12377325Y-15387984D02*
X12377325Y-15187984D01*
X12377325Y-15187984D02*
X12358277Y-15216555D01*
X12358277Y-15216555D02*
X12339229Y-15235603D01*
X12339229Y-15235603D02*
X12320182Y-15245127D01*
X12615420Y-15187984D02*
X12520182Y-15187984D01*
X12520182Y-15187984D02*
X12510658Y-15283222D01*
X12510658Y-15283222D02*
X12520182Y-15273698D01*
X12520182Y-15273698D02*
X12539229Y-15264174D01*
X12539229Y-15264174D02*
X12586848Y-15264174D01*
X12586848Y-15264174D02*
X12605896Y-15273698D01*
X12605896Y-15273698D02*
X12615420Y-15283222D01*
X12615420Y-15283222D02*
X12624944Y-15302269D01*
X12624944Y-15302269D02*
X12624944Y-15349888D01*
X12624944Y-15349888D02*
X12615420Y-15368936D01*
X12615420Y-15368936D02*
X12605896Y-15378460D01*
X12605896Y-15378460D02*
X12586848Y-15387984D01*
X12586848Y-15387984D02*
X12539229Y-15387984D01*
X12539229Y-15387984D02*
X12520182Y-15378460D01*
X12520182Y-15378460D02*
X12510658Y-15368936D01*
X12701134Y-15187984D02*
X12701134Y-15226079D01*
X12777325Y-15187984D02*
X12777325Y-15226079D01*
X13072563Y-15464174D02*
X13063039Y-15454650D01*
X13063039Y-15454650D02*
X13043991Y-15426079D01*
X13043991Y-15426079D02*
X13034468Y-15407031D01*
X13034468Y-15407031D02*
X13024944Y-15378460D01*
X13024944Y-15378460D02*
X13015420Y-15330841D01*
X13015420Y-15330841D02*
X13015420Y-15292746D01*
X13015420Y-15292746D02*
X13024944Y-15245127D01*
X13024944Y-15245127D02*
X13034468Y-15216555D01*
X13034468Y-15216555D02*
X13043991Y-15197508D01*
X13043991Y-15197508D02*
X13063039Y-15168936D01*
X13063039Y-15168936D02*
X13072563Y-15159412D01*
X13139229Y-15207031D02*
X13148753Y-15197508D01*
X13148753Y-15197508D02*
X13167801Y-15187984D01*
X13167801Y-15187984D02*
X13215420Y-15187984D01*
X13215420Y-15187984D02*
X13234468Y-15197508D01*
X13234468Y-15197508D02*
X13243991Y-15207031D01*
X13243991Y-15207031D02*
X13253515Y-15226079D01*
X13253515Y-15226079D02*
X13253515Y-15245127D01*
X13253515Y-15245127D02*
X13243991Y-15273698D01*
X13243991Y-15273698D02*
X13129706Y-15387984D01*
X13129706Y-15387984D02*
X13253515Y-15387984D01*
X13329706Y-15207031D02*
X13339229Y-15197508D01*
X13339229Y-15197508D02*
X13358277Y-15187984D01*
X13358277Y-15187984D02*
X13405896Y-15187984D01*
X13405896Y-15187984D02*
X13424944Y-15197508D01*
X13424944Y-15197508D02*
X13434468Y-15207031D01*
X13434468Y-15207031D02*
X13443991Y-15226079D01*
X13443991Y-15226079D02*
X13443991Y-15245127D01*
X13443991Y-15245127D02*
X13434468Y-15273698D01*
X13434468Y-15273698D02*
X13320182Y-15387984D01*
X13320182Y-15387984D02*
X13443991Y-15387984D01*
X13682087Y-15387984D02*
X13682087Y-15187984D01*
X13767801Y-15387984D02*
X13767801Y-15283222D01*
X13767801Y-15283222D02*
X13758277Y-15264174D01*
X13758277Y-15264174D02*
X13739230Y-15254650D01*
X13739230Y-15254650D02*
X13710658Y-15254650D01*
X13710658Y-15254650D02*
X13691610Y-15264174D01*
X13691610Y-15264174D02*
X13682087Y-15273698D01*
X13891610Y-15387984D02*
X13872563Y-15378460D01*
X13872563Y-15378460D02*
X13863039Y-15368936D01*
X13863039Y-15368936D02*
X13853515Y-15349888D01*
X13853515Y-15349888D02*
X13853515Y-15292746D01*
X13853515Y-15292746D02*
X13863039Y-15273698D01*
X13863039Y-15273698D02*
X13872563Y-15264174D01*
X13872563Y-15264174D02*
X13891610Y-15254650D01*
X13891610Y-15254650D02*
X13920182Y-15254650D01*
X13920182Y-15254650D02*
X13939230Y-15264174D01*
X13939230Y-15264174D02*
X13948753Y-15273698D01*
X13948753Y-15273698D02*
X13958277Y-15292746D01*
X13958277Y-15292746D02*
X13958277Y-15349888D01*
X13958277Y-15349888D02*
X13948753Y-15368936D01*
X13948753Y-15368936D02*
X13939230Y-15378460D01*
X13939230Y-15378460D02*
X13920182Y-15387984D01*
X13920182Y-15387984D02*
X13891610Y-15387984D01*
X14072563Y-15387984D02*
X14053515Y-15378460D01*
X14053515Y-15378460D02*
X14043991Y-15359412D01*
X14043991Y-15359412D02*
X14043991Y-15187984D01*
X14224944Y-15378460D02*
X14205896Y-15387984D01*
X14205896Y-15387984D02*
X14167801Y-15387984D01*
X14167801Y-15387984D02*
X14148753Y-15378460D01*
X14148753Y-15378460D02*
X14139230Y-15359412D01*
X14139230Y-15359412D02*
X14139230Y-15283222D01*
X14139230Y-15283222D02*
X14148753Y-15264174D01*
X14148753Y-15264174D02*
X14167801Y-15254650D01*
X14167801Y-15254650D02*
X14205896Y-15254650D01*
X14205896Y-15254650D02*
X14224944Y-15264174D01*
X14224944Y-15264174D02*
X14234468Y-15283222D01*
X14234468Y-15283222D02*
X14234468Y-15302269D01*
X14234468Y-15302269D02*
X14139230Y-15321317D01*
X14310658Y-15378460D02*
X14329706Y-15387984D01*
X14329706Y-15387984D02*
X14367801Y-15387984D01*
X14367801Y-15387984D02*
X14386849Y-15378460D01*
X14386849Y-15378460D02*
X14396372Y-15359412D01*
X14396372Y-15359412D02*
X14396372Y-15349888D01*
X14396372Y-15349888D02*
X14386849Y-15330841D01*
X14386849Y-15330841D02*
X14367801Y-15321317D01*
X14367801Y-15321317D02*
X14339230Y-15321317D01*
X14339230Y-15321317D02*
X14320182Y-15311793D01*
X14320182Y-15311793D02*
X14310658Y-15292746D01*
X14310658Y-15292746D02*
X14310658Y-15283222D01*
X14310658Y-15283222D02*
X14320182Y-15264174D01*
X14320182Y-15264174D02*
X14339230Y-15254650D01*
X14339230Y-15254650D02*
X14367801Y-15254650D01*
X14367801Y-15254650D02*
X14386849Y-15264174D01*
X14463039Y-15464174D02*
X14472563Y-15454650D01*
X14472563Y-15454650D02*
X14491611Y-15426079D01*
X14491611Y-15426079D02*
X14501134Y-15407031D01*
X14501134Y-15407031D02*
X14510658Y-15378460D01*
X14510658Y-15378460D02*
X14520182Y-15330841D01*
X14520182Y-15330841D02*
X14520182Y-15292746D01*
X14520182Y-15292746D02*
X14510658Y-15245127D01*
X14510658Y-15245127D02*
X14501134Y-15216555D01*
X14501134Y-15216555D02*
X14491611Y-15197508D01*
X14491611Y-15197508D02*
X14472563Y-15168936D01*
X14472563Y-15168936D02*
X14463039Y-15159412D01*
D13*
X9482856Y-15595856D02*
X9482856Y-15525144D01*
X9412144Y-15525144D01*
X9412144Y-15595856D01*
X9482856Y-15595856D01*
D12*
X9863039Y-15651984D02*
X9748753Y-15651984D01*
X9805896Y-15651984D02*
X9805896Y-15451984D01*
X9805896Y-15451984D02*
X9786848Y-15480555D01*
X9786848Y-15480555D02*
X9767801Y-15499603D01*
X9767801Y-15499603D02*
X9748753Y-15509127D01*
X9948753Y-15632936D02*
X9958277Y-15642460D01*
X9958277Y-15642460D02*
X9948753Y-15651984D01*
X9948753Y-15651984D02*
X9939229Y-15642460D01*
X9939229Y-15642460D02*
X9948753Y-15632936D01*
X9948753Y-15632936D02*
X9948753Y-15651984D01*
X10082086Y-15451984D02*
X10101134Y-15451984D01*
X10101134Y-15451984D02*
X10120182Y-15461508D01*
X10120182Y-15461508D02*
X10129705Y-15471031D01*
X10129705Y-15471031D02*
X10139229Y-15490079D01*
X10139229Y-15490079D02*
X10148753Y-15528174D01*
X10148753Y-15528174D02*
X10148753Y-15575793D01*
X10148753Y-15575793D02*
X10139229Y-15613888D01*
X10139229Y-15613888D02*
X10129705Y-15632936D01*
X10129705Y-15632936D02*
X10120182Y-15642460D01*
X10120182Y-15642460D02*
X10101134Y-15651984D01*
X10101134Y-15651984D02*
X10082086Y-15651984D01*
X10082086Y-15651984D02*
X10063039Y-15642460D01*
X10063039Y-15642460D02*
X10053515Y-15632936D01*
X10053515Y-15632936D02*
X10043991Y-15613888D01*
X10043991Y-15613888D02*
X10034467Y-15575793D01*
X10034467Y-15575793D02*
X10034467Y-15528174D01*
X10034467Y-15528174D02*
X10043991Y-15490079D01*
X10043991Y-15490079D02*
X10053515Y-15471031D01*
X10053515Y-15471031D02*
X10063039Y-15461508D01*
X10063039Y-15461508D02*
X10082086Y-15451984D01*
X10272563Y-15451984D02*
X10291610Y-15451984D01*
X10291610Y-15451984D02*
X10310658Y-15461508D01*
X10310658Y-15461508D02*
X10320182Y-15471031D01*
X10320182Y-15471031D02*
X10329705Y-15490079D01*
X10329705Y-15490079D02*
X10339229Y-15528174D01*
X10339229Y-15528174D02*
X10339229Y-15575793D01*
X10339229Y-15575793D02*
X10329705Y-15613888D01*
X10329705Y-15613888D02*
X10320182Y-15632936D01*
X10320182Y-15632936D02*
X10310658Y-15642460D01*
X10310658Y-15642460D02*
X10291610Y-15651984D01*
X10291610Y-15651984D02*
X10272563Y-15651984D01*
X10272563Y-15651984D02*
X10253515Y-15642460D01*
X10253515Y-15642460D02*
X10243991Y-15632936D01*
X10243991Y-15632936D02*
X10234467Y-15613888D01*
X10234467Y-15613888D02*
X10224944Y-15575793D01*
X10224944Y-15575793D02*
X10224944Y-15528174D01*
X10224944Y-15528174D02*
X10234467Y-15490079D01*
X10234467Y-15490079D02*
X10243991Y-15471031D01*
X10243991Y-15471031D02*
X10253515Y-15461508D01*
X10253515Y-15461508D02*
X10272563Y-15451984D01*
X10463039Y-15451984D02*
X10482086Y-15451984D01*
X10482086Y-15451984D02*
X10501134Y-15461508D01*
X10501134Y-15461508D02*
X10510658Y-15471031D01*
X10510658Y-15471031D02*
X10520182Y-15490079D01*
X10520182Y-15490079D02*
X10529705Y-15528174D01*
X10529705Y-15528174D02*
X10529705Y-15575793D01*
X10529705Y-15575793D02*
X10520182Y-15613888D01*
X10520182Y-15613888D02*
X10510658Y-15632936D01*
X10510658Y-15632936D02*
X10501134Y-15642460D01*
X10501134Y-15642460D02*
X10482086Y-15651984D01*
X10482086Y-15651984D02*
X10463039Y-15651984D01*
X10463039Y-15651984D02*
X10443991Y-15642460D01*
X10443991Y-15642460D02*
X10434467Y-15632936D01*
X10434467Y-15632936D02*
X10424944Y-15613888D01*
X10424944Y-15613888D02*
X10415420Y-15575793D01*
X10415420Y-15575793D02*
X10415420Y-15528174D01*
X10415420Y-15528174D02*
X10424944Y-15490079D01*
X10424944Y-15490079D02*
X10434467Y-15471031D01*
X10434467Y-15471031D02*
X10443991Y-15461508D01*
X10443991Y-15461508D02*
X10463039Y-15451984D01*
X10615420Y-15651984D02*
X10615420Y-15518650D01*
X10615420Y-15537698D02*
X10624944Y-15528174D01*
X10624944Y-15528174D02*
X10643991Y-15518650D01*
X10643991Y-15518650D02*
X10672563Y-15518650D01*
X10672563Y-15518650D02*
X10691610Y-15528174D01*
X10691610Y-15528174D02*
X10701134Y-15547222D01*
X10701134Y-15547222D02*
X10701134Y-15651984D01*
X10701134Y-15547222D02*
X10710658Y-15528174D01*
X10710658Y-15528174D02*
X10729705Y-15518650D01*
X10729705Y-15518650D02*
X10758277Y-15518650D01*
X10758277Y-15518650D02*
X10777325Y-15528174D01*
X10777325Y-15528174D02*
X10786848Y-15547222D01*
X10786848Y-15547222D02*
X10786848Y-15651984D01*
X10882086Y-15651984D02*
X10882086Y-15518650D01*
X10882086Y-15537698D02*
X10891610Y-15528174D01*
X10891610Y-15528174D02*
X10910658Y-15518650D01*
X10910658Y-15518650D02*
X10939229Y-15518650D01*
X10939229Y-15518650D02*
X10958277Y-15528174D01*
X10958277Y-15528174D02*
X10967801Y-15547222D01*
X10967801Y-15547222D02*
X10967801Y-15651984D01*
X10967801Y-15547222D02*
X10977325Y-15528174D01*
X10977325Y-15528174D02*
X10996372Y-15518650D01*
X10996372Y-15518650D02*
X11024944Y-15518650D01*
X11024944Y-15518650D02*
X11043991Y-15528174D01*
X11043991Y-15528174D02*
X11053515Y-15547222D01*
X11053515Y-15547222D02*
X11053515Y-15651984D01*
X11443991Y-15442460D02*
X11272563Y-15699603D01*
X11701134Y-15451984D02*
X11720182Y-15451984D01*
X11720182Y-15451984D02*
X11739229Y-15461508D01*
X11739229Y-15461508D02*
X11748753Y-15471031D01*
X11748753Y-15471031D02*
X11758277Y-15490079D01*
X11758277Y-15490079D02*
X11767801Y-15528174D01*
X11767801Y-15528174D02*
X11767801Y-15575793D01*
X11767801Y-15575793D02*
X11758277Y-15613888D01*
X11758277Y-15613888D02*
X11748753Y-15632936D01*
X11748753Y-15632936D02*
X11739229Y-15642460D01*
X11739229Y-15642460D02*
X11720182Y-15651984D01*
X11720182Y-15651984D02*
X11701134Y-15651984D01*
X11701134Y-15651984D02*
X11682086Y-15642460D01*
X11682086Y-15642460D02*
X11672563Y-15632936D01*
X11672563Y-15632936D02*
X11663039Y-15613888D01*
X11663039Y-15613888D02*
X11653515Y-15575793D01*
X11653515Y-15575793D02*
X11653515Y-15528174D01*
X11653515Y-15528174D02*
X11663039Y-15490079D01*
X11663039Y-15490079D02*
X11672563Y-15471031D01*
X11672563Y-15471031D02*
X11682086Y-15461508D01*
X11682086Y-15461508D02*
X11701134Y-15451984D01*
X11853515Y-15632936D02*
X11863039Y-15642460D01*
X11863039Y-15642460D02*
X11853515Y-15651984D01*
X11853515Y-15651984D02*
X11843991Y-15642460D01*
X11843991Y-15642460D02*
X11853515Y-15632936D01*
X11853515Y-15632936D02*
X11853515Y-15651984D01*
X11986848Y-15451984D02*
X12005896Y-15451984D01*
X12005896Y-15451984D02*
X12024944Y-15461508D01*
X12024944Y-15461508D02*
X12034467Y-15471031D01*
X12034467Y-15471031D02*
X12043991Y-15490079D01*
X12043991Y-15490079D02*
X12053515Y-15528174D01*
X12053515Y-15528174D02*
X12053515Y-15575793D01*
X12053515Y-15575793D02*
X12043991Y-15613888D01*
X12043991Y-15613888D02*
X12034467Y-15632936D01*
X12034467Y-15632936D02*
X12024944Y-15642460D01*
X12024944Y-15642460D02*
X12005896Y-15651984D01*
X12005896Y-15651984D02*
X11986848Y-15651984D01*
X11986848Y-15651984D02*
X11967801Y-15642460D01*
X11967801Y-15642460D02*
X11958277Y-15632936D01*
X11958277Y-15632936D02*
X11948753Y-15613888D01*
X11948753Y-15613888D02*
X11939229Y-15575793D01*
X11939229Y-15575793D02*
X11939229Y-15528174D01*
X11939229Y-15528174D02*
X11948753Y-15490079D01*
X11948753Y-15490079D02*
X11958277Y-15471031D01*
X11958277Y-15471031D02*
X11967801Y-15461508D01*
X11967801Y-15461508D02*
X11986848Y-15451984D01*
X12120182Y-15451984D02*
X12243991Y-15451984D01*
X12243991Y-15451984D02*
X12177325Y-15528174D01*
X12177325Y-15528174D02*
X12205896Y-15528174D01*
X12205896Y-15528174D02*
X12224944Y-15537698D01*
X12224944Y-15537698D02*
X12234467Y-15547222D01*
X12234467Y-15547222D02*
X12243991Y-15566269D01*
X12243991Y-15566269D02*
X12243991Y-15613888D01*
X12243991Y-15613888D02*
X12234467Y-15632936D01*
X12234467Y-15632936D02*
X12224944Y-15642460D01*
X12224944Y-15642460D02*
X12205896Y-15651984D01*
X12205896Y-15651984D02*
X12148753Y-15651984D01*
X12148753Y-15651984D02*
X12129706Y-15642460D01*
X12129706Y-15642460D02*
X12120182Y-15632936D01*
X12339229Y-15651984D02*
X12377325Y-15651984D01*
X12377325Y-15651984D02*
X12396372Y-15642460D01*
X12396372Y-15642460D02*
X12405896Y-15632936D01*
X12405896Y-15632936D02*
X12424944Y-15604365D01*
X12424944Y-15604365D02*
X12434467Y-15566269D01*
X12434467Y-15566269D02*
X12434467Y-15490079D01*
X12434467Y-15490079D02*
X12424944Y-15471031D01*
X12424944Y-15471031D02*
X12415420Y-15461508D01*
X12415420Y-15461508D02*
X12396372Y-15451984D01*
X12396372Y-15451984D02*
X12358277Y-15451984D01*
X12358277Y-15451984D02*
X12339229Y-15461508D01*
X12339229Y-15461508D02*
X12329706Y-15471031D01*
X12329706Y-15471031D02*
X12320182Y-15490079D01*
X12320182Y-15490079D02*
X12320182Y-15537698D01*
X12320182Y-15537698D02*
X12329706Y-15556746D01*
X12329706Y-15556746D02*
X12339229Y-15566269D01*
X12339229Y-15566269D02*
X12358277Y-15575793D01*
X12358277Y-15575793D02*
X12396372Y-15575793D01*
X12396372Y-15575793D02*
X12415420Y-15566269D01*
X12415420Y-15566269D02*
X12424944Y-15556746D01*
X12424944Y-15556746D02*
X12434467Y-15537698D01*
X12605896Y-15518650D02*
X12605896Y-15651984D01*
X12558277Y-15442460D02*
X12510658Y-15585317D01*
X12510658Y-15585317D02*
X12634467Y-15585317D01*
X12701134Y-15451984D02*
X12701134Y-15490079D01*
X12777325Y-15451984D02*
X12777325Y-15490079D01*
X13072563Y-15728174D02*
X13063039Y-15718650D01*
X13063039Y-15718650D02*
X13043991Y-15690079D01*
X13043991Y-15690079D02*
X13034468Y-15671031D01*
X13034468Y-15671031D02*
X13024944Y-15642460D01*
X13024944Y-15642460D02*
X13015420Y-15594841D01*
X13015420Y-15594841D02*
X13015420Y-15556746D01*
X13015420Y-15556746D02*
X13024944Y-15509127D01*
X13024944Y-15509127D02*
X13034468Y-15480555D01*
X13034468Y-15480555D02*
X13043991Y-15461508D01*
X13043991Y-15461508D02*
X13063039Y-15432936D01*
X13063039Y-15432936D02*
X13072563Y-15423412D01*
X13243991Y-15451984D02*
X13148753Y-15451984D01*
X13148753Y-15451984D02*
X13139229Y-15547222D01*
X13139229Y-15547222D02*
X13148753Y-15537698D01*
X13148753Y-15537698D02*
X13167801Y-15528174D01*
X13167801Y-15528174D02*
X13215420Y-15528174D01*
X13215420Y-15528174D02*
X13234468Y-15537698D01*
X13234468Y-15537698D02*
X13243991Y-15547222D01*
X13243991Y-15547222D02*
X13253515Y-15566269D01*
X13253515Y-15566269D02*
X13253515Y-15613888D01*
X13253515Y-15613888D02*
X13243991Y-15632936D01*
X13243991Y-15632936D02*
X13234468Y-15642460D01*
X13234468Y-15642460D02*
X13215420Y-15651984D01*
X13215420Y-15651984D02*
X13167801Y-15651984D01*
X13167801Y-15651984D02*
X13148753Y-15642460D01*
X13148753Y-15642460D02*
X13139229Y-15632936D01*
X13491610Y-15651984D02*
X13491610Y-15451984D01*
X13577325Y-15651984D02*
X13577325Y-15547222D01*
X13577325Y-15547222D02*
X13567801Y-15528174D01*
X13567801Y-15528174D02*
X13548753Y-15518650D01*
X13548753Y-15518650D02*
X13520182Y-15518650D01*
X13520182Y-15518650D02*
X13501134Y-15528174D01*
X13501134Y-15528174D02*
X13491610Y-15537698D01*
X13701134Y-15651984D02*
X13682087Y-15642460D01*
X13682087Y-15642460D02*
X13672563Y-15632936D01*
X13672563Y-15632936D02*
X13663039Y-15613888D01*
X13663039Y-15613888D02*
X13663039Y-15556746D01*
X13663039Y-15556746D02*
X13672563Y-15537698D01*
X13672563Y-15537698D02*
X13682087Y-15528174D01*
X13682087Y-15528174D02*
X13701134Y-15518650D01*
X13701134Y-15518650D02*
X13729706Y-15518650D01*
X13729706Y-15518650D02*
X13748753Y-15528174D01*
X13748753Y-15528174D02*
X13758277Y-15537698D01*
X13758277Y-15537698D02*
X13767801Y-15556746D01*
X13767801Y-15556746D02*
X13767801Y-15613888D01*
X13767801Y-15613888D02*
X13758277Y-15632936D01*
X13758277Y-15632936D02*
X13748753Y-15642460D01*
X13748753Y-15642460D02*
X13729706Y-15651984D01*
X13729706Y-15651984D02*
X13701134Y-15651984D01*
X13882087Y-15651984D02*
X13863039Y-15642460D01*
X13863039Y-15642460D02*
X13853515Y-15623412D01*
X13853515Y-15623412D02*
X13853515Y-15451984D01*
X14034468Y-15642460D02*
X14015420Y-15651984D01*
X14015420Y-15651984D02*
X13977325Y-15651984D01*
X13977325Y-15651984D02*
X13958277Y-15642460D01*
X13958277Y-15642460D02*
X13948753Y-15623412D01*
X13948753Y-15623412D02*
X13948753Y-15547222D01*
X13948753Y-15547222D02*
X13958277Y-15528174D01*
X13958277Y-15528174D02*
X13977325Y-15518650D01*
X13977325Y-15518650D02*
X14015420Y-15518650D01*
X14015420Y-15518650D02*
X14034468Y-15528174D01*
X14034468Y-15528174D02*
X14043991Y-15547222D01*
X14043991Y-15547222D02*
X14043991Y-15566269D01*
X14043991Y-15566269D02*
X13948753Y-15585317D01*
X14120182Y-15642460D02*
X14139230Y-15651984D01*
X14139230Y-15651984D02*
X14177325Y-15651984D01*
X14177325Y-15651984D02*
X14196372Y-15642460D01*
X14196372Y-15642460D02*
X14205896Y-15623412D01*
X14205896Y-15623412D02*
X14205896Y-15613888D01*
X14205896Y-15613888D02*
X14196372Y-15594841D01*
X14196372Y-15594841D02*
X14177325Y-15585317D01*
X14177325Y-15585317D02*
X14148753Y-15585317D01*
X14148753Y-15585317D02*
X14129706Y-15575793D01*
X14129706Y-15575793D02*
X14120182Y-15556746D01*
X14120182Y-15556746D02*
X14120182Y-15547222D01*
X14120182Y-15547222D02*
X14129706Y-15528174D01*
X14129706Y-15528174D02*
X14148753Y-15518650D01*
X14148753Y-15518650D02*
X14177325Y-15518650D01*
X14177325Y-15518650D02*
X14196372Y-15528174D01*
X14272563Y-15728174D02*
X14282087Y-15718650D01*
X14282087Y-15718650D02*
X14301134Y-15690079D01*
X14301134Y-15690079D02*
X14310658Y-15671031D01*
X14310658Y-15671031D02*
X14320182Y-15642460D01*
X14320182Y-15642460D02*
X14329706Y-15594841D01*
X14329706Y-15594841D02*
X14329706Y-15556746D01*
X14329706Y-15556746D02*
X14320182Y-15509127D01*
X14320182Y-15509127D02*
X14310658Y-15480555D01*
X14310658Y-15480555D02*
X14301134Y-15461508D01*
X14301134Y-15461508D02*
X14282087Y-15432936D01*
X14282087Y-15432936D02*
X14272563Y-15423412D01*
D14*
X9446500Y-15875500D02*
X9497500Y-15824500D01*
X9446500Y-15773500D01*
X9395500Y-15824500D01*
X9446500Y-15875500D01*
D12*
X9863039Y-15915984D02*
X9748753Y-15915984D01*
X9805896Y-15915984D02*
X9805896Y-15715984D01*
X9805896Y-15715984D02*
X9786848Y-15744555D01*
X9786848Y-15744555D02*
X9767801Y-15763603D01*
X9767801Y-15763603D02*
X9748753Y-15773127D01*
X9948753Y-15896936D02*
X9958277Y-15906460D01*
X9958277Y-15906460D02*
X9948753Y-15915984D01*
X9948753Y-15915984D02*
X9939229Y-15906460D01*
X9939229Y-15906460D02*
X9948753Y-15896936D01*
X9948753Y-15896936D02*
X9948753Y-15915984D01*
X10082086Y-15715984D02*
X10101134Y-15715984D01*
X10101134Y-15715984D02*
X10120182Y-15725508D01*
X10120182Y-15725508D02*
X10129705Y-15735031D01*
X10129705Y-15735031D02*
X10139229Y-15754079D01*
X10139229Y-15754079D02*
X10148753Y-15792174D01*
X10148753Y-15792174D02*
X10148753Y-15839793D01*
X10148753Y-15839793D02*
X10139229Y-15877888D01*
X10139229Y-15877888D02*
X10129705Y-15896936D01*
X10129705Y-15896936D02*
X10120182Y-15906460D01*
X10120182Y-15906460D02*
X10101134Y-15915984D01*
X10101134Y-15915984D02*
X10082086Y-15915984D01*
X10082086Y-15915984D02*
X10063039Y-15906460D01*
X10063039Y-15906460D02*
X10053515Y-15896936D01*
X10053515Y-15896936D02*
X10043991Y-15877888D01*
X10043991Y-15877888D02*
X10034467Y-15839793D01*
X10034467Y-15839793D02*
X10034467Y-15792174D01*
X10034467Y-15792174D02*
X10043991Y-15754079D01*
X10043991Y-15754079D02*
X10053515Y-15735031D01*
X10053515Y-15735031D02*
X10063039Y-15725508D01*
X10063039Y-15725508D02*
X10082086Y-15715984D01*
X10224944Y-15735031D02*
X10234467Y-15725508D01*
X10234467Y-15725508D02*
X10253515Y-15715984D01*
X10253515Y-15715984D02*
X10301134Y-15715984D01*
X10301134Y-15715984D02*
X10320182Y-15725508D01*
X10320182Y-15725508D02*
X10329705Y-15735031D01*
X10329705Y-15735031D02*
X10339229Y-15754079D01*
X10339229Y-15754079D02*
X10339229Y-15773127D01*
X10339229Y-15773127D02*
X10329705Y-15801698D01*
X10329705Y-15801698D02*
X10215420Y-15915984D01*
X10215420Y-15915984D02*
X10339229Y-15915984D01*
X10463039Y-15715984D02*
X10482086Y-15715984D01*
X10482086Y-15715984D02*
X10501134Y-15725508D01*
X10501134Y-15725508D02*
X10510658Y-15735031D01*
X10510658Y-15735031D02*
X10520182Y-15754079D01*
X10520182Y-15754079D02*
X10529705Y-15792174D01*
X10529705Y-15792174D02*
X10529705Y-15839793D01*
X10529705Y-15839793D02*
X10520182Y-15877888D01*
X10520182Y-15877888D02*
X10510658Y-15896936D01*
X10510658Y-15896936D02*
X10501134Y-15906460D01*
X10501134Y-15906460D02*
X10482086Y-15915984D01*
X10482086Y-15915984D02*
X10463039Y-15915984D01*
X10463039Y-15915984D02*
X10443991Y-15906460D01*
X10443991Y-15906460D02*
X10434467Y-15896936D01*
X10434467Y-15896936D02*
X10424944Y-15877888D01*
X10424944Y-15877888D02*
X10415420Y-15839793D01*
X10415420Y-15839793D02*
X10415420Y-15792174D01*
X10415420Y-15792174D02*
X10424944Y-15754079D01*
X10424944Y-15754079D02*
X10434467Y-15735031D01*
X10434467Y-15735031D02*
X10443991Y-15725508D01*
X10443991Y-15725508D02*
X10463039Y-15715984D01*
X10615420Y-15915984D02*
X10615420Y-15782650D01*
X10615420Y-15801698D02*
X10624944Y-15792174D01*
X10624944Y-15792174D02*
X10643991Y-15782650D01*
X10643991Y-15782650D02*
X10672563Y-15782650D01*
X10672563Y-15782650D02*
X10691610Y-15792174D01*
X10691610Y-15792174D02*
X10701134Y-15811222D01*
X10701134Y-15811222D02*
X10701134Y-15915984D01*
X10701134Y-15811222D02*
X10710658Y-15792174D01*
X10710658Y-15792174D02*
X10729705Y-15782650D01*
X10729705Y-15782650D02*
X10758277Y-15782650D01*
X10758277Y-15782650D02*
X10777325Y-15792174D01*
X10777325Y-15792174D02*
X10786848Y-15811222D01*
X10786848Y-15811222D02*
X10786848Y-15915984D01*
X10882086Y-15915984D02*
X10882086Y-15782650D01*
X10882086Y-15801698D02*
X10891610Y-15792174D01*
X10891610Y-15792174D02*
X10910658Y-15782650D01*
X10910658Y-15782650D02*
X10939229Y-15782650D01*
X10939229Y-15782650D02*
X10958277Y-15792174D01*
X10958277Y-15792174D02*
X10967801Y-15811222D01*
X10967801Y-15811222D02*
X10967801Y-15915984D01*
X10967801Y-15811222D02*
X10977325Y-15792174D01*
X10977325Y-15792174D02*
X10996372Y-15782650D01*
X10996372Y-15782650D02*
X11024944Y-15782650D01*
X11024944Y-15782650D02*
X11043991Y-15792174D01*
X11043991Y-15792174D02*
X11053515Y-15811222D01*
X11053515Y-15811222D02*
X11053515Y-15915984D01*
X11443991Y-15706460D02*
X11272563Y-15963603D01*
X11701134Y-15715984D02*
X11720182Y-15715984D01*
X11720182Y-15715984D02*
X11739229Y-15725508D01*
X11739229Y-15725508D02*
X11748753Y-15735031D01*
X11748753Y-15735031D02*
X11758277Y-15754079D01*
X11758277Y-15754079D02*
X11767801Y-15792174D01*
X11767801Y-15792174D02*
X11767801Y-15839793D01*
X11767801Y-15839793D02*
X11758277Y-15877888D01*
X11758277Y-15877888D02*
X11748753Y-15896936D01*
X11748753Y-15896936D02*
X11739229Y-15906460D01*
X11739229Y-15906460D02*
X11720182Y-15915984D01*
X11720182Y-15915984D02*
X11701134Y-15915984D01*
X11701134Y-15915984D02*
X11682086Y-15906460D01*
X11682086Y-15906460D02*
X11672563Y-15896936D01*
X11672563Y-15896936D02*
X11663039Y-15877888D01*
X11663039Y-15877888D02*
X11653515Y-15839793D01*
X11653515Y-15839793D02*
X11653515Y-15792174D01*
X11653515Y-15792174D02*
X11663039Y-15754079D01*
X11663039Y-15754079D02*
X11672563Y-15735031D01*
X11672563Y-15735031D02*
X11682086Y-15725508D01*
X11682086Y-15725508D02*
X11701134Y-15715984D01*
X11853515Y-15896936D02*
X11863039Y-15906460D01*
X11863039Y-15906460D02*
X11853515Y-15915984D01*
X11853515Y-15915984D02*
X11843991Y-15906460D01*
X11843991Y-15906460D02*
X11853515Y-15896936D01*
X11853515Y-15896936D02*
X11853515Y-15915984D01*
X11986848Y-15715984D02*
X12005896Y-15715984D01*
X12005896Y-15715984D02*
X12024944Y-15725508D01*
X12024944Y-15725508D02*
X12034467Y-15735031D01*
X12034467Y-15735031D02*
X12043991Y-15754079D01*
X12043991Y-15754079D02*
X12053515Y-15792174D01*
X12053515Y-15792174D02*
X12053515Y-15839793D01*
X12053515Y-15839793D02*
X12043991Y-15877888D01*
X12043991Y-15877888D02*
X12034467Y-15896936D01*
X12034467Y-15896936D02*
X12024944Y-15906460D01*
X12024944Y-15906460D02*
X12005896Y-15915984D01*
X12005896Y-15915984D02*
X11986848Y-15915984D01*
X11986848Y-15915984D02*
X11967801Y-15906460D01*
X11967801Y-15906460D02*
X11958277Y-15896936D01*
X11958277Y-15896936D02*
X11948753Y-15877888D01*
X11948753Y-15877888D02*
X11939229Y-15839793D01*
X11939229Y-15839793D02*
X11939229Y-15792174D01*
X11939229Y-15792174D02*
X11948753Y-15754079D01*
X11948753Y-15754079D02*
X11958277Y-15735031D01*
X11958277Y-15735031D02*
X11967801Y-15725508D01*
X11967801Y-15725508D02*
X11986848Y-15715984D01*
X12224944Y-15782650D02*
X12224944Y-15915984D01*
X12177325Y-15706460D02*
X12129706Y-15849317D01*
X12129706Y-15849317D02*
X12253515Y-15849317D01*
X12367801Y-15715984D02*
X12386848Y-15715984D01*
X12386848Y-15715984D02*
X12405896Y-15725508D01*
X12405896Y-15725508D02*
X12415420Y-15735031D01*
X12415420Y-15735031D02*
X12424944Y-15754079D01*
X12424944Y-15754079D02*
X12434467Y-15792174D01*
X12434467Y-15792174D02*
X12434467Y-15839793D01*
X12434467Y-15839793D02*
X12424944Y-15877888D01*
X12424944Y-15877888D02*
X12415420Y-15896936D01*
X12415420Y-15896936D02*
X12405896Y-15906460D01*
X12405896Y-15906460D02*
X12386848Y-15915984D01*
X12386848Y-15915984D02*
X12367801Y-15915984D01*
X12367801Y-15915984D02*
X12348753Y-15906460D01*
X12348753Y-15906460D02*
X12339229Y-15896936D01*
X12339229Y-15896936D02*
X12329706Y-15877888D01*
X12329706Y-15877888D02*
X12320182Y-15839793D01*
X12320182Y-15839793D02*
X12320182Y-15792174D01*
X12320182Y-15792174D02*
X12329706Y-15754079D01*
X12329706Y-15754079D02*
X12339229Y-15735031D01*
X12339229Y-15735031D02*
X12348753Y-15725508D01*
X12348753Y-15725508D02*
X12367801Y-15715984D01*
X12510658Y-15735031D02*
X12520182Y-15725508D01*
X12520182Y-15725508D02*
X12539229Y-15715984D01*
X12539229Y-15715984D02*
X12586848Y-15715984D01*
X12586848Y-15715984D02*
X12605896Y-15725508D01*
X12605896Y-15725508D02*
X12615420Y-15735031D01*
X12615420Y-15735031D02*
X12624944Y-15754079D01*
X12624944Y-15754079D02*
X12624944Y-15773127D01*
X12624944Y-15773127D02*
X12615420Y-15801698D01*
X12615420Y-15801698D02*
X12501134Y-15915984D01*
X12501134Y-15915984D02*
X12624944Y-15915984D01*
X12701134Y-15715984D02*
X12701134Y-15754079D01*
X12777325Y-15715984D02*
X12777325Y-15754079D01*
X13072563Y-15992174D02*
X13063039Y-15982650D01*
X13063039Y-15982650D02*
X13043991Y-15954079D01*
X13043991Y-15954079D02*
X13034468Y-15935031D01*
X13034468Y-15935031D02*
X13024944Y-15906460D01*
X13024944Y-15906460D02*
X13015420Y-15858841D01*
X13015420Y-15858841D02*
X13015420Y-15820746D01*
X13015420Y-15820746D02*
X13024944Y-15773127D01*
X13024944Y-15773127D02*
X13034468Y-15744555D01*
X13034468Y-15744555D02*
X13043991Y-15725508D01*
X13043991Y-15725508D02*
X13063039Y-15696936D01*
X13063039Y-15696936D02*
X13072563Y-15687412D01*
X13139229Y-15735031D02*
X13148753Y-15725508D01*
X13148753Y-15725508D02*
X13167801Y-15715984D01*
X13167801Y-15715984D02*
X13215420Y-15715984D01*
X13215420Y-15715984D02*
X13234468Y-15725508D01*
X13234468Y-15725508D02*
X13243991Y-15735031D01*
X13243991Y-15735031D02*
X13253515Y-15754079D01*
X13253515Y-15754079D02*
X13253515Y-15773127D01*
X13253515Y-15773127D02*
X13243991Y-15801698D01*
X13243991Y-15801698D02*
X13129706Y-15915984D01*
X13129706Y-15915984D02*
X13253515Y-15915984D01*
X13424944Y-15782650D02*
X13424944Y-15915984D01*
X13377325Y-15706460D02*
X13329706Y-15849317D01*
X13329706Y-15849317D02*
X13453515Y-15849317D01*
X13682087Y-15915984D02*
X13682087Y-15715984D01*
X13767801Y-15915984D02*
X13767801Y-15811222D01*
X13767801Y-15811222D02*
X13758277Y-15792174D01*
X13758277Y-15792174D02*
X13739230Y-15782650D01*
X13739230Y-15782650D02*
X13710658Y-15782650D01*
X13710658Y-15782650D02*
X13691610Y-15792174D01*
X13691610Y-15792174D02*
X13682087Y-15801698D01*
X13891610Y-15915984D02*
X13872563Y-15906460D01*
X13872563Y-15906460D02*
X13863039Y-15896936D01*
X13863039Y-15896936D02*
X13853515Y-15877888D01*
X13853515Y-15877888D02*
X13853515Y-15820746D01*
X13853515Y-15820746D02*
X13863039Y-15801698D01*
X13863039Y-15801698D02*
X13872563Y-15792174D01*
X13872563Y-15792174D02*
X13891610Y-15782650D01*
X13891610Y-15782650D02*
X13920182Y-15782650D01*
X13920182Y-15782650D02*
X13939230Y-15792174D01*
X13939230Y-15792174D02*
X13948753Y-15801698D01*
X13948753Y-15801698D02*
X13958277Y-15820746D01*
X13958277Y-15820746D02*
X13958277Y-15877888D01*
X13958277Y-15877888D02*
X13948753Y-15896936D01*
X13948753Y-15896936D02*
X13939230Y-15906460D01*
X13939230Y-15906460D02*
X13920182Y-15915984D01*
X13920182Y-15915984D02*
X13891610Y-15915984D01*
X14072563Y-15915984D02*
X14053515Y-15906460D01*
X14053515Y-15906460D02*
X14043991Y-15887412D01*
X14043991Y-15887412D02*
X14043991Y-15715984D01*
X14224944Y-15906460D02*
X14205896Y-15915984D01*
X14205896Y-15915984D02*
X14167801Y-15915984D01*
X14167801Y-15915984D02*
X14148753Y-15906460D01*
X14148753Y-15906460D02*
X14139230Y-15887412D01*
X14139230Y-15887412D02*
X14139230Y-15811222D01*
X14139230Y-15811222D02*
X14148753Y-15792174D01*
X14148753Y-15792174D02*
X14167801Y-15782650D01*
X14167801Y-15782650D02*
X14205896Y-15782650D01*
X14205896Y-15782650D02*
X14224944Y-15792174D01*
X14224944Y-15792174D02*
X14234468Y-15811222D01*
X14234468Y-15811222D02*
X14234468Y-15830269D01*
X14234468Y-15830269D02*
X14139230Y-15849317D01*
X14310658Y-15906460D02*
X14329706Y-15915984D01*
X14329706Y-15915984D02*
X14367801Y-15915984D01*
X14367801Y-15915984D02*
X14386849Y-15906460D01*
X14386849Y-15906460D02*
X14396372Y-15887412D01*
X14396372Y-15887412D02*
X14396372Y-15877888D01*
X14396372Y-15877888D02*
X14386849Y-15858841D01*
X14386849Y-15858841D02*
X14367801Y-15849317D01*
X14367801Y-15849317D02*
X14339230Y-15849317D01*
X14339230Y-15849317D02*
X14320182Y-15839793D01*
X14320182Y-15839793D02*
X14310658Y-15820746D01*
X14310658Y-15820746D02*
X14310658Y-15811222D01*
X14310658Y-15811222D02*
X14320182Y-15792174D01*
X14320182Y-15792174D02*
X14339230Y-15782650D01*
X14339230Y-15782650D02*
X14367801Y-15782650D01*
X14367801Y-15782650D02*
X14386849Y-15792174D01*
X14463039Y-15992174D02*
X14472563Y-15982650D01*
X14472563Y-15982650D02*
X14491611Y-15954079D01*
X14491611Y-15954079D02*
X14501134Y-15935031D01*
X14501134Y-15935031D02*
X14510658Y-15906460D01*
X14510658Y-15906460D02*
X14520182Y-15858841D01*
X14520182Y-15858841D02*
X14520182Y-15820746D01*
X14520182Y-15820746D02*
X14510658Y-15773127D01*
X14510658Y-15773127D02*
X14501134Y-15744555D01*
X14501134Y-15744555D02*
X14491611Y-15725508D01*
X14491611Y-15725508D02*
X14472563Y-15696936D01*
X14472563Y-15696936D02*
X14463039Y-15687412D01*
D15*
X9387500Y-16033500D02*
X9497500Y-16143500D01*
X9497500Y-16033500D02*
X9387500Y-16143500D01*
X9497500Y-16088500D02*
G75*
G02*
X9387500Y-16088500I-55000J0D01*
G01*
X9387500Y-16088500D02*
G75*
G02*
X9497500Y-16088500I55000J0D01*
G01*
D12*
X9863039Y-16179984D02*
X9748753Y-16179984D01*
X9805896Y-16179984D02*
X9805896Y-15979984D01*
X9805896Y-15979984D02*
X9786848Y-16008555D01*
X9786848Y-16008555D02*
X9767801Y-16027603D01*
X9767801Y-16027603D02*
X9748753Y-16037127D01*
X9948753Y-16160936D02*
X9958277Y-16170460D01*
X9958277Y-16170460D02*
X9948753Y-16179984D01*
X9948753Y-16179984D02*
X9939229Y-16170460D01*
X9939229Y-16170460D02*
X9948753Y-16160936D01*
X9948753Y-16160936D02*
X9948753Y-16179984D01*
X10148753Y-16179984D02*
X10034467Y-16179984D01*
X10091610Y-16179984D02*
X10091610Y-15979984D01*
X10091610Y-15979984D02*
X10072563Y-16008555D01*
X10072563Y-16008555D02*
X10053515Y-16027603D01*
X10053515Y-16027603D02*
X10034467Y-16037127D01*
X10272563Y-15979984D02*
X10291610Y-15979984D01*
X10291610Y-15979984D02*
X10310658Y-15989508D01*
X10310658Y-15989508D02*
X10320182Y-15999031D01*
X10320182Y-15999031D02*
X10329705Y-16018079D01*
X10329705Y-16018079D02*
X10339229Y-16056174D01*
X10339229Y-16056174D02*
X10339229Y-16103793D01*
X10339229Y-16103793D02*
X10329705Y-16141888D01*
X10329705Y-16141888D02*
X10320182Y-16160936D01*
X10320182Y-16160936D02*
X10310658Y-16170460D01*
X10310658Y-16170460D02*
X10291610Y-16179984D01*
X10291610Y-16179984D02*
X10272563Y-16179984D01*
X10272563Y-16179984D02*
X10253515Y-16170460D01*
X10253515Y-16170460D02*
X10243991Y-16160936D01*
X10243991Y-16160936D02*
X10234467Y-16141888D01*
X10234467Y-16141888D02*
X10224944Y-16103793D01*
X10224944Y-16103793D02*
X10224944Y-16056174D01*
X10224944Y-16056174D02*
X10234467Y-16018079D01*
X10234467Y-16018079D02*
X10243991Y-15999031D01*
X10243991Y-15999031D02*
X10253515Y-15989508D01*
X10253515Y-15989508D02*
X10272563Y-15979984D01*
X10463039Y-15979984D02*
X10482086Y-15979984D01*
X10482086Y-15979984D02*
X10501134Y-15989508D01*
X10501134Y-15989508D02*
X10510658Y-15999031D01*
X10510658Y-15999031D02*
X10520182Y-16018079D01*
X10520182Y-16018079D02*
X10529705Y-16056174D01*
X10529705Y-16056174D02*
X10529705Y-16103793D01*
X10529705Y-16103793D02*
X10520182Y-16141888D01*
X10520182Y-16141888D02*
X10510658Y-16160936D01*
X10510658Y-16160936D02*
X10501134Y-16170460D01*
X10501134Y-16170460D02*
X10482086Y-16179984D01*
X10482086Y-16179984D02*
X10463039Y-16179984D01*
X10463039Y-16179984D02*
X10443991Y-16170460D01*
X10443991Y-16170460D02*
X10434467Y-16160936D01*
X10434467Y-16160936D02*
X10424944Y-16141888D01*
X10424944Y-16141888D02*
X10415420Y-16103793D01*
X10415420Y-16103793D02*
X10415420Y-16056174D01*
X10415420Y-16056174D02*
X10424944Y-16018079D01*
X10424944Y-16018079D02*
X10434467Y-15999031D01*
X10434467Y-15999031D02*
X10443991Y-15989508D01*
X10443991Y-15989508D02*
X10463039Y-15979984D01*
X10615420Y-16179984D02*
X10615420Y-16046650D01*
X10615420Y-16065698D02*
X10624944Y-16056174D01*
X10624944Y-16056174D02*
X10643991Y-16046650D01*
X10643991Y-16046650D02*
X10672563Y-16046650D01*
X10672563Y-16046650D02*
X10691610Y-16056174D01*
X10691610Y-16056174D02*
X10701134Y-16075222D01*
X10701134Y-16075222D02*
X10701134Y-16179984D01*
X10701134Y-16075222D02*
X10710658Y-16056174D01*
X10710658Y-16056174D02*
X10729705Y-16046650D01*
X10729705Y-16046650D02*
X10758277Y-16046650D01*
X10758277Y-16046650D02*
X10777325Y-16056174D01*
X10777325Y-16056174D02*
X10786848Y-16075222D01*
X10786848Y-16075222D02*
X10786848Y-16179984D01*
X10882086Y-16179984D02*
X10882086Y-16046650D01*
X10882086Y-16065698D02*
X10891610Y-16056174D01*
X10891610Y-16056174D02*
X10910658Y-16046650D01*
X10910658Y-16046650D02*
X10939229Y-16046650D01*
X10939229Y-16046650D02*
X10958277Y-16056174D01*
X10958277Y-16056174D02*
X10967801Y-16075222D01*
X10967801Y-16075222D02*
X10967801Y-16179984D01*
X10967801Y-16075222D02*
X10977325Y-16056174D01*
X10977325Y-16056174D02*
X10996372Y-16046650D01*
X10996372Y-16046650D02*
X11024944Y-16046650D01*
X11024944Y-16046650D02*
X11043991Y-16056174D01*
X11043991Y-16056174D02*
X11053515Y-16075222D01*
X11053515Y-16075222D02*
X11053515Y-16179984D01*
X11443991Y-15970460D02*
X11272563Y-16227603D01*
X11701134Y-15979984D02*
X11720182Y-15979984D01*
X11720182Y-15979984D02*
X11739229Y-15989508D01*
X11739229Y-15989508D02*
X11748753Y-15999031D01*
X11748753Y-15999031D02*
X11758277Y-16018079D01*
X11758277Y-16018079D02*
X11767801Y-16056174D01*
X11767801Y-16056174D02*
X11767801Y-16103793D01*
X11767801Y-16103793D02*
X11758277Y-16141888D01*
X11758277Y-16141888D02*
X11748753Y-16160936D01*
X11748753Y-16160936D02*
X11739229Y-16170460D01*
X11739229Y-16170460D02*
X11720182Y-16179984D01*
X11720182Y-16179984D02*
X11701134Y-16179984D01*
X11701134Y-16179984D02*
X11682086Y-16170460D01*
X11682086Y-16170460D02*
X11672563Y-16160936D01*
X11672563Y-16160936D02*
X11663039Y-16141888D01*
X11663039Y-16141888D02*
X11653515Y-16103793D01*
X11653515Y-16103793D02*
X11653515Y-16056174D01*
X11653515Y-16056174D02*
X11663039Y-16018079D01*
X11663039Y-16018079D02*
X11672563Y-15999031D01*
X11672563Y-15999031D02*
X11682086Y-15989508D01*
X11682086Y-15989508D02*
X11701134Y-15979984D01*
X11853515Y-16160936D02*
X11863039Y-16170460D01*
X11863039Y-16170460D02*
X11853515Y-16179984D01*
X11853515Y-16179984D02*
X11843991Y-16170460D01*
X11843991Y-16170460D02*
X11853515Y-16160936D01*
X11853515Y-16160936D02*
X11853515Y-16179984D01*
X11986848Y-15979984D02*
X12005896Y-15979984D01*
X12005896Y-15979984D02*
X12024944Y-15989508D01*
X12024944Y-15989508D02*
X12034467Y-15999031D01*
X12034467Y-15999031D02*
X12043991Y-16018079D01*
X12043991Y-16018079D02*
X12053515Y-16056174D01*
X12053515Y-16056174D02*
X12053515Y-16103793D01*
X12053515Y-16103793D02*
X12043991Y-16141888D01*
X12043991Y-16141888D02*
X12034467Y-16160936D01*
X12034467Y-16160936D02*
X12024944Y-16170460D01*
X12024944Y-16170460D02*
X12005896Y-16179984D01*
X12005896Y-16179984D02*
X11986848Y-16179984D01*
X11986848Y-16179984D02*
X11967801Y-16170460D01*
X11967801Y-16170460D02*
X11958277Y-16160936D01*
X11958277Y-16160936D02*
X11948753Y-16141888D01*
X11948753Y-16141888D02*
X11939229Y-16103793D01*
X11939229Y-16103793D02*
X11939229Y-16056174D01*
X11939229Y-16056174D02*
X11948753Y-16018079D01*
X11948753Y-16018079D02*
X11958277Y-15999031D01*
X11958277Y-15999031D02*
X11967801Y-15989508D01*
X11967801Y-15989508D02*
X11986848Y-15979984D01*
X12224944Y-16046650D02*
X12224944Y-16179984D01*
X12177325Y-15970460D02*
X12129706Y-16113317D01*
X12129706Y-16113317D02*
X12253515Y-16113317D01*
X12310658Y-15979984D02*
X12434467Y-15979984D01*
X12434467Y-15979984D02*
X12367801Y-16056174D01*
X12367801Y-16056174D02*
X12396372Y-16056174D01*
X12396372Y-16056174D02*
X12415420Y-16065698D01*
X12415420Y-16065698D02*
X12424944Y-16075222D01*
X12424944Y-16075222D02*
X12434467Y-16094269D01*
X12434467Y-16094269D02*
X12434467Y-16141888D01*
X12434467Y-16141888D02*
X12424944Y-16160936D01*
X12424944Y-16160936D02*
X12415420Y-16170460D01*
X12415420Y-16170460D02*
X12396372Y-16179984D01*
X12396372Y-16179984D02*
X12339229Y-16179984D01*
X12339229Y-16179984D02*
X12320182Y-16170460D01*
X12320182Y-16170460D02*
X12310658Y-16160936D01*
X12501134Y-15979984D02*
X12624944Y-15979984D01*
X12624944Y-15979984D02*
X12558277Y-16056174D01*
X12558277Y-16056174D02*
X12586848Y-16056174D01*
X12586848Y-16056174D02*
X12605896Y-16065698D01*
X12605896Y-16065698D02*
X12615420Y-16075222D01*
X12615420Y-16075222D02*
X12624944Y-16094269D01*
X12624944Y-16094269D02*
X12624944Y-16141888D01*
X12624944Y-16141888D02*
X12615420Y-16160936D01*
X12615420Y-16160936D02*
X12605896Y-16170460D01*
X12605896Y-16170460D02*
X12586848Y-16179984D01*
X12586848Y-16179984D02*
X12529706Y-16179984D01*
X12529706Y-16179984D02*
X12510658Y-16170460D01*
X12510658Y-16170460D02*
X12501134Y-16160936D01*
X12701134Y-15979984D02*
X12701134Y-16018079D01*
X12777325Y-15979984D02*
X12777325Y-16018079D01*
X13072563Y-16256174D02*
X13063039Y-16246650D01*
X13063039Y-16246650D02*
X13043991Y-16218079D01*
X13043991Y-16218079D02*
X13034468Y-16199031D01*
X13034468Y-16199031D02*
X13024944Y-16170460D01*
X13024944Y-16170460D02*
X13015420Y-16122841D01*
X13015420Y-16122841D02*
X13015420Y-16084746D01*
X13015420Y-16084746D02*
X13024944Y-16037127D01*
X13024944Y-16037127D02*
X13034468Y-16008555D01*
X13034468Y-16008555D02*
X13043991Y-15989508D01*
X13043991Y-15989508D02*
X13063039Y-15960936D01*
X13063039Y-15960936D02*
X13072563Y-15951412D01*
X13243991Y-15979984D02*
X13148753Y-15979984D01*
X13148753Y-15979984D02*
X13139229Y-16075222D01*
X13139229Y-16075222D02*
X13148753Y-16065698D01*
X13148753Y-16065698D02*
X13167801Y-16056174D01*
X13167801Y-16056174D02*
X13215420Y-16056174D01*
X13215420Y-16056174D02*
X13234468Y-16065698D01*
X13234468Y-16065698D02*
X13243991Y-16075222D01*
X13243991Y-16075222D02*
X13253515Y-16094269D01*
X13253515Y-16094269D02*
X13253515Y-16141888D01*
X13253515Y-16141888D02*
X13243991Y-16160936D01*
X13243991Y-16160936D02*
X13234468Y-16170460D01*
X13234468Y-16170460D02*
X13215420Y-16179984D01*
X13215420Y-16179984D02*
X13167801Y-16179984D01*
X13167801Y-16179984D02*
X13148753Y-16170460D01*
X13148753Y-16170460D02*
X13139229Y-16160936D01*
X13348753Y-16179984D02*
X13386848Y-16179984D01*
X13386848Y-16179984D02*
X13405896Y-16170460D01*
X13405896Y-16170460D02*
X13415420Y-16160936D01*
X13415420Y-16160936D02*
X13434468Y-16132365D01*
X13434468Y-16132365D02*
X13443991Y-16094269D01*
X13443991Y-16094269D02*
X13443991Y-16018079D01*
X13443991Y-16018079D02*
X13434468Y-15999031D01*
X13434468Y-15999031D02*
X13424944Y-15989508D01*
X13424944Y-15989508D02*
X13405896Y-15979984D01*
X13405896Y-15979984D02*
X13367801Y-15979984D01*
X13367801Y-15979984D02*
X13348753Y-15989508D01*
X13348753Y-15989508D02*
X13339229Y-15999031D01*
X13339229Y-15999031D02*
X13329706Y-16018079D01*
X13329706Y-16018079D02*
X13329706Y-16065698D01*
X13329706Y-16065698D02*
X13339229Y-16084746D01*
X13339229Y-16084746D02*
X13348753Y-16094269D01*
X13348753Y-16094269D02*
X13367801Y-16103793D01*
X13367801Y-16103793D02*
X13405896Y-16103793D01*
X13405896Y-16103793D02*
X13424944Y-16094269D01*
X13424944Y-16094269D02*
X13434468Y-16084746D01*
X13434468Y-16084746D02*
X13443991Y-16065698D01*
X13682087Y-16179984D02*
X13682087Y-15979984D01*
X13767801Y-16179984D02*
X13767801Y-16075222D01*
X13767801Y-16075222D02*
X13758277Y-16056174D01*
X13758277Y-16056174D02*
X13739230Y-16046650D01*
X13739230Y-16046650D02*
X13710658Y-16046650D01*
X13710658Y-16046650D02*
X13691610Y-16056174D01*
X13691610Y-16056174D02*
X13682087Y-16065698D01*
X13891610Y-16179984D02*
X13872563Y-16170460D01*
X13872563Y-16170460D02*
X13863039Y-16160936D01*
X13863039Y-16160936D02*
X13853515Y-16141888D01*
X13853515Y-16141888D02*
X13853515Y-16084746D01*
X13853515Y-16084746D02*
X13863039Y-16065698D01*
X13863039Y-16065698D02*
X13872563Y-16056174D01*
X13872563Y-16056174D02*
X13891610Y-16046650D01*
X13891610Y-16046650D02*
X13920182Y-16046650D01*
X13920182Y-16046650D02*
X13939230Y-16056174D01*
X13939230Y-16056174D02*
X13948753Y-16065698D01*
X13948753Y-16065698D02*
X13958277Y-16084746D01*
X13958277Y-16084746D02*
X13958277Y-16141888D01*
X13958277Y-16141888D02*
X13948753Y-16160936D01*
X13948753Y-16160936D02*
X13939230Y-16170460D01*
X13939230Y-16170460D02*
X13920182Y-16179984D01*
X13920182Y-16179984D02*
X13891610Y-16179984D01*
X14072563Y-16179984D02*
X14053515Y-16170460D01*
X14053515Y-16170460D02*
X14043991Y-16151412D01*
X14043991Y-16151412D02*
X14043991Y-15979984D01*
X14224944Y-16170460D02*
X14205896Y-16179984D01*
X14205896Y-16179984D02*
X14167801Y-16179984D01*
X14167801Y-16179984D02*
X14148753Y-16170460D01*
X14148753Y-16170460D02*
X14139230Y-16151412D01*
X14139230Y-16151412D02*
X14139230Y-16075222D01*
X14139230Y-16075222D02*
X14148753Y-16056174D01*
X14148753Y-16056174D02*
X14167801Y-16046650D01*
X14167801Y-16046650D02*
X14205896Y-16046650D01*
X14205896Y-16046650D02*
X14224944Y-16056174D01*
X14224944Y-16056174D02*
X14234468Y-16075222D01*
X14234468Y-16075222D02*
X14234468Y-16094269D01*
X14234468Y-16094269D02*
X14139230Y-16113317D01*
X14310658Y-16170460D02*
X14329706Y-16179984D01*
X14329706Y-16179984D02*
X14367801Y-16179984D01*
X14367801Y-16179984D02*
X14386849Y-16170460D01*
X14386849Y-16170460D02*
X14396372Y-16151412D01*
X14396372Y-16151412D02*
X14396372Y-16141888D01*
X14396372Y-16141888D02*
X14386849Y-16122841D01*
X14386849Y-16122841D02*
X14367801Y-16113317D01*
X14367801Y-16113317D02*
X14339230Y-16113317D01*
X14339230Y-16113317D02*
X14320182Y-16103793D01*
X14320182Y-16103793D02*
X14310658Y-16084746D01*
X14310658Y-16084746D02*
X14310658Y-16075222D01*
X14310658Y-16075222D02*
X14320182Y-16056174D01*
X14320182Y-16056174D02*
X14339230Y-16046650D01*
X14339230Y-16046650D02*
X14367801Y-16046650D01*
X14367801Y-16046650D02*
X14386849Y-16056174D01*
X14463039Y-16256174D02*
X14472563Y-16246650D01*
X14472563Y-16246650D02*
X14491611Y-16218079D01*
X14491611Y-16218079D02*
X14501134Y-16199031D01*
X14501134Y-16199031D02*
X14510658Y-16170460D01*
X14510658Y-16170460D02*
X14520182Y-16122841D01*
X14520182Y-16122841D02*
X14520182Y-16084746D01*
X14520182Y-16084746D02*
X14510658Y-16037127D01*
X14510658Y-16037127D02*
X14501134Y-16008555D01*
X14501134Y-16008555D02*
X14491611Y-15989508D01*
X14491611Y-15989508D02*
X14472563Y-15960936D01*
X14472563Y-15960936D02*
X14463039Y-15951412D01*
D16*
X9367500Y-16287500D02*
X9497500Y-16417500D01*
X9497500Y-16287500D02*
X9367500Y-16417500D01*
X9432500Y-16287500D02*
X9432500Y-16417500D01*
X9367500Y-16352500D02*
X9497500Y-16352500D01*
D12*
X9863039Y-16443984D02*
X9748753Y-16443984D01*
X9805896Y-16443984D02*
X9805896Y-16243984D01*
X9805896Y-16243984D02*
X9786848Y-16272555D01*
X9786848Y-16272555D02*
X9767801Y-16291603D01*
X9767801Y-16291603D02*
X9748753Y-16301127D01*
X9948753Y-16424936D02*
X9958277Y-16434460D01*
X9958277Y-16434460D02*
X9948753Y-16443984D01*
X9948753Y-16443984D02*
X9939229Y-16434460D01*
X9939229Y-16434460D02*
X9948753Y-16424936D01*
X9948753Y-16424936D02*
X9948753Y-16443984D01*
X10024944Y-16243984D02*
X10148753Y-16243984D01*
X10148753Y-16243984D02*
X10082086Y-16320174D01*
X10082086Y-16320174D02*
X10110658Y-16320174D01*
X10110658Y-16320174D02*
X10129705Y-16329698D01*
X10129705Y-16329698D02*
X10139229Y-16339222D01*
X10139229Y-16339222D02*
X10148753Y-16358269D01*
X10148753Y-16358269D02*
X10148753Y-16405888D01*
X10148753Y-16405888D02*
X10139229Y-16424936D01*
X10139229Y-16424936D02*
X10129705Y-16434460D01*
X10129705Y-16434460D02*
X10110658Y-16443984D01*
X10110658Y-16443984D02*
X10053515Y-16443984D01*
X10053515Y-16443984D02*
X10034467Y-16434460D01*
X10034467Y-16434460D02*
X10024944Y-16424936D01*
X10272563Y-16243984D02*
X10291610Y-16243984D01*
X10291610Y-16243984D02*
X10310658Y-16253508D01*
X10310658Y-16253508D02*
X10320182Y-16263031D01*
X10320182Y-16263031D02*
X10329705Y-16282079D01*
X10329705Y-16282079D02*
X10339229Y-16320174D01*
X10339229Y-16320174D02*
X10339229Y-16367793D01*
X10339229Y-16367793D02*
X10329705Y-16405888D01*
X10329705Y-16405888D02*
X10320182Y-16424936D01*
X10320182Y-16424936D02*
X10310658Y-16434460D01*
X10310658Y-16434460D02*
X10291610Y-16443984D01*
X10291610Y-16443984D02*
X10272563Y-16443984D01*
X10272563Y-16443984D02*
X10253515Y-16434460D01*
X10253515Y-16434460D02*
X10243991Y-16424936D01*
X10243991Y-16424936D02*
X10234467Y-16405888D01*
X10234467Y-16405888D02*
X10224944Y-16367793D01*
X10224944Y-16367793D02*
X10224944Y-16320174D01*
X10224944Y-16320174D02*
X10234467Y-16282079D01*
X10234467Y-16282079D02*
X10243991Y-16263031D01*
X10243991Y-16263031D02*
X10253515Y-16253508D01*
X10253515Y-16253508D02*
X10272563Y-16243984D01*
X10463039Y-16243984D02*
X10482086Y-16243984D01*
X10482086Y-16243984D02*
X10501134Y-16253508D01*
X10501134Y-16253508D02*
X10510658Y-16263031D01*
X10510658Y-16263031D02*
X10520182Y-16282079D01*
X10520182Y-16282079D02*
X10529705Y-16320174D01*
X10529705Y-16320174D02*
X10529705Y-16367793D01*
X10529705Y-16367793D02*
X10520182Y-16405888D01*
X10520182Y-16405888D02*
X10510658Y-16424936D01*
X10510658Y-16424936D02*
X10501134Y-16434460D01*
X10501134Y-16434460D02*
X10482086Y-16443984D01*
X10482086Y-16443984D02*
X10463039Y-16443984D01*
X10463039Y-16443984D02*
X10443991Y-16434460D01*
X10443991Y-16434460D02*
X10434467Y-16424936D01*
X10434467Y-16424936D02*
X10424944Y-16405888D01*
X10424944Y-16405888D02*
X10415420Y-16367793D01*
X10415420Y-16367793D02*
X10415420Y-16320174D01*
X10415420Y-16320174D02*
X10424944Y-16282079D01*
X10424944Y-16282079D02*
X10434467Y-16263031D01*
X10434467Y-16263031D02*
X10443991Y-16253508D01*
X10443991Y-16253508D02*
X10463039Y-16243984D01*
X10615420Y-16443984D02*
X10615420Y-16310650D01*
X10615420Y-16329698D02*
X10624944Y-16320174D01*
X10624944Y-16320174D02*
X10643991Y-16310650D01*
X10643991Y-16310650D02*
X10672563Y-16310650D01*
X10672563Y-16310650D02*
X10691610Y-16320174D01*
X10691610Y-16320174D02*
X10701134Y-16339222D01*
X10701134Y-16339222D02*
X10701134Y-16443984D01*
X10701134Y-16339222D02*
X10710658Y-16320174D01*
X10710658Y-16320174D02*
X10729705Y-16310650D01*
X10729705Y-16310650D02*
X10758277Y-16310650D01*
X10758277Y-16310650D02*
X10777325Y-16320174D01*
X10777325Y-16320174D02*
X10786848Y-16339222D01*
X10786848Y-16339222D02*
X10786848Y-16443984D01*
X10882086Y-16443984D02*
X10882086Y-16310650D01*
X10882086Y-16329698D02*
X10891610Y-16320174D01*
X10891610Y-16320174D02*
X10910658Y-16310650D01*
X10910658Y-16310650D02*
X10939229Y-16310650D01*
X10939229Y-16310650D02*
X10958277Y-16320174D01*
X10958277Y-16320174D02*
X10967801Y-16339222D01*
X10967801Y-16339222D02*
X10967801Y-16443984D01*
X10967801Y-16339222D02*
X10977325Y-16320174D01*
X10977325Y-16320174D02*
X10996372Y-16310650D01*
X10996372Y-16310650D02*
X11024944Y-16310650D01*
X11024944Y-16310650D02*
X11043991Y-16320174D01*
X11043991Y-16320174D02*
X11053515Y-16339222D01*
X11053515Y-16339222D02*
X11053515Y-16443984D01*
X11443991Y-16234460D02*
X11272563Y-16491603D01*
X11701134Y-16243984D02*
X11720182Y-16243984D01*
X11720182Y-16243984D02*
X11739229Y-16253508D01*
X11739229Y-16253508D02*
X11748753Y-16263031D01*
X11748753Y-16263031D02*
X11758277Y-16282079D01*
X11758277Y-16282079D02*
X11767801Y-16320174D01*
X11767801Y-16320174D02*
X11767801Y-16367793D01*
X11767801Y-16367793D02*
X11758277Y-16405888D01*
X11758277Y-16405888D02*
X11748753Y-16424936D01*
X11748753Y-16424936D02*
X11739229Y-16434460D01*
X11739229Y-16434460D02*
X11720182Y-16443984D01*
X11720182Y-16443984D02*
X11701134Y-16443984D01*
X11701134Y-16443984D02*
X11682086Y-16434460D01*
X11682086Y-16434460D02*
X11672563Y-16424936D01*
X11672563Y-16424936D02*
X11663039Y-16405888D01*
X11663039Y-16405888D02*
X11653515Y-16367793D01*
X11653515Y-16367793D02*
X11653515Y-16320174D01*
X11653515Y-16320174D02*
X11663039Y-16282079D01*
X11663039Y-16282079D02*
X11672563Y-16263031D01*
X11672563Y-16263031D02*
X11682086Y-16253508D01*
X11682086Y-16253508D02*
X11701134Y-16243984D01*
X11853515Y-16424936D02*
X11863039Y-16434460D01*
X11863039Y-16434460D02*
X11853515Y-16443984D01*
X11853515Y-16443984D02*
X11843991Y-16434460D01*
X11843991Y-16434460D02*
X11853515Y-16424936D01*
X11853515Y-16424936D02*
X11853515Y-16443984D01*
X11986848Y-16243984D02*
X12005896Y-16243984D01*
X12005896Y-16243984D02*
X12024944Y-16253508D01*
X12024944Y-16253508D02*
X12034467Y-16263031D01*
X12034467Y-16263031D02*
X12043991Y-16282079D01*
X12043991Y-16282079D02*
X12053515Y-16320174D01*
X12053515Y-16320174D02*
X12053515Y-16367793D01*
X12053515Y-16367793D02*
X12043991Y-16405888D01*
X12043991Y-16405888D02*
X12034467Y-16424936D01*
X12034467Y-16424936D02*
X12024944Y-16434460D01*
X12024944Y-16434460D02*
X12005896Y-16443984D01*
X12005896Y-16443984D02*
X11986848Y-16443984D01*
X11986848Y-16443984D02*
X11967801Y-16434460D01*
X11967801Y-16434460D02*
X11958277Y-16424936D01*
X11958277Y-16424936D02*
X11948753Y-16405888D01*
X11948753Y-16405888D02*
X11939229Y-16367793D01*
X11939229Y-16367793D02*
X11939229Y-16320174D01*
X11939229Y-16320174D02*
X11948753Y-16282079D01*
X11948753Y-16282079D02*
X11958277Y-16263031D01*
X11958277Y-16263031D02*
X11967801Y-16253508D01*
X11967801Y-16253508D02*
X11986848Y-16243984D01*
X12234467Y-16243984D02*
X12139229Y-16243984D01*
X12139229Y-16243984D02*
X12129706Y-16339222D01*
X12129706Y-16339222D02*
X12139229Y-16329698D01*
X12139229Y-16329698D02*
X12158277Y-16320174D01*
X12158277Y-16320174D02*
X12205896Y-16320174D01*
X12205896Y-16320174D02*
X12224944Y-16329698D01*
X12224944Y-16329698D02*
X12234467Y-16339222D01*
X12234467Y-16339222D02*
X12243991Y-16358269D01*
X12243991Y-16358269D02*
X12243991Y-16405888D01*
X12243991Y-16405888D02*
X12234467Y-16424936D01*
X12234467Y-16424936D02*
X12224944Y-16434460D01*
X12224944Y-16434460D02*
X12205896Y-16443984D01*
X12205896Y-16443984D02*
X12158277Y-16443984D01*
X12158277Y-16443984D02*
X12139229Y-16434460D01*
X12139229Y-16434460D02*
X12129706Y-16424936D01*
X12434467Y-16443984D02*
X12320182Y-16443984D01*
X12377325Y-16443984D02*
X12377325Y-16243984D01*
X12377325Y-16243984D02*
X12358277Y-16272555D01*
X12358277Y-16272555D02*
X12339229Y-16291603D01*
X12339229Y-16291603D02*
X12320182Y-16301127D01*
X12510658Y-16263031D02*
X12520182Y-16253508D01*
X12520182Y-16253508D02*
X12539229Y-16243984D01*
X12539229Y-16243984D02*
X12586848Y-16243984D01*
X12586848Y-16243984D02*
X12605896Y-16253508D01*
X12605896Y-16253508D02*
X12615420Y-16263031D01*
X12615420Y-16263031D02*
X12624944Y-16282079D01*
X12624944Y-16282079D02*
X12624944Y-16301127D01*
X12624944Y-16301127D02*
X12615420Y-16329698D01*
X12615420Y-16329698D02*
X12501134Y-16443984D01*
X12501134Y-16443984D02*
X12624944Y-16443984D01*
X12701134Y-16243984D02*
X12701134Y-16282079D01*
X12777325Y-16243984D02*
X12777325Y-16282079D01*
X13072563Y-16520174D02*
X13063039Y-16510650D01*
X13063039Y-16510650D02*
X13043991Y-16482079D01*
X13043991Y-16482079D02*
X13034468Y-16463031D01*
X13034468Y-16463031D02*
X13024944Y-16434460D01*
X13024944Y-16434460D02*
X13015420Y-16386841D01*
X13015420Y-16386841D02*
X13015420Y-16348746D01*
X13015420Y-16348746D02*
X13024944Y-16301127D01*
X13024944Y-16301127D02*
X13034468Y-16272555D01*
X13034468Y-16272555D02*
X13043991Y-16253508D01*
X13043991Y-16253508D02*
X13063039Y-16224936D01*
X13063039Y-16224936D02*
X13072563Y-16215412D01*
X13253515Y-16443984D02*
X13139229Y-16443984D01*
X13196372Y-16443984D02*
X13196372Y-16243984D01*
X13196372Y-16243984D02*
X13177325Y-16272555D01*
X13177325Y-16272555D02*
X13158277Y-16291603D01*
X13158277Y-16291603D02*
X13139229Y-16301127D01*
X13434468Y-16243984D02*
X13339229Y-16243984D01*
X13339229Y-16243984D02*
X13329706Y-16339222D01*
X13329706Y-16339222D02*
X13339229Y-16329698D01*
X13339229Y-16329698D02*
X13358277Y-16320174D01*
X13358277Y-16320174D02*
X13405896Y-16320174D01*
X13405896Y-16320174D02*
X13424944Y-16329698D01*
X13424944Y-16329698D02*
X13434468Y-16339222D01*
X13434468Y-16339222D02*
X13443991Y-16358269D01*
X13443991Y-16358269D02*
X13443991Y-16405888D01*
X13443991Y-16405888D02*
X13434468Y-16424936D01*
X13434468Y-16424936D02*
X13424944Y-16434460D01*
X13424944Y-16434460D02*
X13405896Y-16443984D01*
X13405896Y-16443984D02*
X13358277Y-16443984D01*
X13358277Y-16443984D02*
X13339229Y-16434460D01*
X13339229Y-16434460D02*
X13329706Y-16424936D01*
X13682087Y-16443984D02*
X13682087Y-16243984D01*
X13767801Y-16443984D02*
X13767801Y-16339222D01*
X13767801Y-16339222D02*
X13758277Y-16320174D01*
X13758277Y-16320174D02*
X13739230Y-16310650D01*
X13739230Y-16310650D02*
X13710658Y-16310650D01*
X13710658Y-16310650D02*
X13691610Y-16320174D01*
X13691610Y-16320174D02*
X13682087Y-16329698D01*
X13891610Y-16443984D02*
X13872563Y-16434460D01*
X13872563Y-16434460D02*
X13863039Y-16424936D01*
X13863039Y-16424936D02*
X13853515Y-16405888D01*
X13853515Y-16405888D02*
X13853515Y-16348746D01*
X13853515Y-16348746D02*
X13863039Y-16329698D01*
X13863039Y-16329698D02*
X13872563Y-16320174D01*
X13872563Y-16320174D02*
X13891610Y-16310650D01*
X13891610Y-16310650D02*
X13920182Y-16310650D01*
X13920182Y-16310650D02*
X13939230Y-16320174D01*
X13939230Y-16320174D02*
X13948753Y-16329698D01*
X13948753Y-16329698D02*
X13958277Y-16348746D01*
X13958277Y-16348746D02*
X13958277Y-16405888D01*
X13958277Y-16405888D02*
X13948753Y-16424936D01*
X13948753Y-16424936D02*
X13939230Y-16434460D01*
X13939230Y-16434460D02*
X13920182Y-16443984D01*
X13920182Y-16443984D02*
X13891610Y-16443984D01*
X14072563Y-16443984D02*
X14053515Y-16434460D01*
X14053515Y-16434460D02*
X14043991Y-16415412D01*
X14043991Y-16415412D02*
X14043991Y-16243984D01*
X14224944Y-16434460D02*
X14205896Y-16443984D01*
X14205896Y-16443984D02*
X14167801Y-16443984D01*
X14167801Y-16443984D02*
X14148753Y-16434460D01*
X14148753Y-16434460D02*
X14139230Y-16415412D01*
X14139230Y-16415412D02*
X14139230Y-16339222D01*
X14139230Y-16339222D02*
X14148753Y-16320174D01*
X14148753Y-16320174D02*
X14167801Y-16310650D01*
X14167801Y-16310650D02*
X14205896Y-16310650D01*
X14205896Y-16310650D02*
X14224944Y-16320174D01*
X14224944Y-16320174D02*
X14234468Y-16339222D01*
X14234468Y-16339222D02*
X14234468Y-16358269D01*
X14234468Y-16358269D02*
X14139230Y-16377317D01*
X14310658Y-16434460D02*
X14329706Y-16443984D01*
X14329706Y-16443984D02*
X14367801Y-16443984D01*
X14367801Y-16443984D02*
X14386849Y-16434460D01*
X14386849Y-16434460D02*
X14396372Y-16415412D01*
X14396372Y-16415412D02*
X14396372Y-16405888D01*
X14396372Y-16405888D02*
X14386849Y-16386841D01*
X14386849Y-16386841D02*
X14367801Y-16377317D01*
X14367801Y-16377317D02*
X14339230Y-16377317D01*
X14339230Y-16377317D02*
X14320182Y-16367793D01*
X14320182Y-16367793D02*
X14310658Y-16348746D01*
X14310658Y-16348746D02*
X14310658Y-16339222D01*
X14310658Y-16339222D02*
X14320182Y-16320174D01*
X14320182Y-16320174D02*
X14339230Y-16310650D01*
X14339230Y-16310650D02*
X14367801Y-16310650D01*
X14367801Y-16310650D02*
X14386849Y-16320174D01*
X14463039Y-16520174D02*
X14472563Y-16510650D01*
X14472563Y-16510650D02*
X14491611Y-16482079D01*
X14491611Y-16482079D02*
X14501134Y-16463031D01*
X14501134Y-16463031D02*
X14510658Y-16434460D01*
X14510658Y-16434460D02*
X14520182Y-16386841D01*
X14520182Y-16386841D02*
X14520182Y-16348746D01*
X14520182Y-16348746D02*
X14510658Y-16301127D01*
X14510658Y-16301127D02*
X14501134Y-16272555D01*
X14501134Y-16272555D02*
X14491611Y-16253508D01*
X14491611Y-16253508D02*
X14472563Y-16224936D01*
X14472563Y-16224936D02*
X14463039Y-16215412D01*
M02*
