M48
; DRILL file {KiCad 8.0.5} date 2024-11-19T19:36:26+0100
; FORMAT={-:-/ absolute / inch / decimal}
; #@! TF.CreationDate,2024-11-19T19:36:26+01:00
; #@! TF.GenerationSoftware,Kicad,Pcbnew,8.0.5
; #@! TF.FileFunction,Plated,1,2,PTH
FMAT,2
INCH
; #@! TA.AperFunction,Plated,PTH,ViaDrill
T1C0.0118
; #@! TA.AperFunction,Plated,PTH,ComponentDrill
T2C0.0276
; #@! TA.AperFunction,Plated,PTH,ComponentDrill
T3C0.0315
; #@! TA.AperFunction,Plated,PTH,ComponentDrill
T4C0.0394
; #@! TA.AperFunction,Plated,PTH,ComponentDrill
T5C0.0402
; #@! TA.AperFunction,Plated,PTH,ComponentDrill
T6C0.0433
; #@! TA.AperFunction,Plated,PTH,ComponentDrill
T7C0.0512
%
G90
G05
T1
X5.0764Y-2.587
X5.1815Y-3.8157
X5.4823Y-4.2685
X5.4839Y-3.5917
X5.4862Y-3.8114
X6.111Y-2.5882
X6.8173Y-3.9913
X7.0902Y-4.4917
X7.1587Y-2.4807
X7.1622Y-2.2157
X7.3472Y-3.1626
X7.476Y-5.3224
X7.7386Y-4.8307
X8.2205Y-3.1283
T2
X6.9366Y-2.4055
X7.0114Y-2.4055
T3
X4.1807Y-5.0185
X4.2807Y-5.0185
X4.3807Y-5.0185
X4.4807Y-5.0185
X4.5807Y-5.0185
X4.6807Y-5.0185
X4.7807Y-5.0185
X4.8807Y-5.0185
X4.9807Y-5.0185
X5.0807Y-5.0185
X5.1807Y-5.0185
X5.2807Y-5.0185
X5.3807Y-5.0185
X5.4807Y-5.0185
X7.7315Y-2.3071
X7.828Y-2.789
X7.828Y-2.8677
X7.8315Y-2.3071
X7.9068Y-2.789
X7.9068Y-2.8677
X7.9855Y-2.789
X7.9855Y-2.8677
T4
X8.8709Y-5.028
X8.8709Y-5.128
X8.8709Y-5.228
X8.8709Y-5.328
X8.8709Y-5.428
T5
X6.2445Y-2.6906
X6.2445Y-2.7906
X6.2445Y-2.8906
X6.2445Y-2.9906
X6.2445Y-3.0906
X6.2445Y-3.1906
X6.2445Y-3.2906
X6.2445Y-3.3906
X6.2445Y-3.4906
X6.2445Y-3.5906
X6.2445Y-3.6906
X6.2445Y-3.7906
X6.2445Y-3.8906
X6.2445Y-3.9906
X6.2445Y-4.0906
X6.2445Y-4.1906
X6.8445Y-3.0906
X6.8445Y-3.1906
X6.8445Y-3.2906
X6.8445Y-3.3906
X6.8445Y-3.4906
X6.8445Y-3.5906
X6.8445Y-3.6906
X6.8445Y-3.7906
T6
X7.4815Y-2.2783
X7.4815Y-2.3783
X7.4815Y-2.4783
X7.4815Y-2.5783
X7.4815Y-2.6783
X7.4815Y-2.7783
X7.4815Y-2.8783
X7.4815Y-2.9783
X7.4815Y-3.0783
X7.4815Y-3.1783
X7.4815Y-3.2783
X7.4815Y-3.3783
X7.4815Y-3.4783
X7.4815Y-3.5783
X7.4815Y-3.6783
X7.4815Y-3.7783
X7.4815Y-3.8783
X7.4815Y-3.9783
X7.4815Y-4.0783
X7.4815Y-4.1783
X7.4815Y-4.2783
X7.4815Y-4.3783
X7.4815Y-4.4783
X7.4815Y-4.5783
X7.5815Y-4.0783
X7.6016Y-2.5263
X7.6016Y-2.6263
X7.6016Y-2.7263
X7.6016Y-2.8263
X7.6016Y-2.9263
X7.6815Y-4.0783
X7.7815Y-4.0783
X7.8815Y-4.0783
X7.9815Y-2.3783
X7.9815Y-4.0783
X8.0815Y-2.2783
X8.0815Y-2.3783
X8.0815Y-2.4783
X8.0815Y-2.5783
X8.0815Y-2.6783
X8.0815Y-2.7783
X8.0815Y-2.8783
X8.0815Y-2.9783
X8.0815Y-3.0783
X8.0815Y-3.1783
X8.0815Y-3.2783
X8.0815Y-3.3783
X8.0815Y-3.4783
X8.0815Y-3.5783
X8.0815Y-3.6783
X8.0815Y-3.7783
X8.0815Y-3.8783
X8.0815Y-3.9783
X8.0815Y-4.0783
X8.0815Y-4.1783
X8.0815Y-4.2783
X8.0815Y-4.3783
X8.0815Y-4.4783
X8.0815Y-4.5783
T7
X8.8693Y-1.4524
X8.8693Y-1.6492
X8.8693Y-1.8461
X8.8713Y-2.1874
X8.8713Y-2.3843
X8.8713Y-2.5811
X8.872Y-4.2961
X8.872Y-4.4929
X8.872Y-4.6898
X8.8724Y-3.6012
X8.8724Y-3.798
X8.8724Y-3.9949
X8.8744Y-2.9059
X8.8744Y-3.1028
X8.8744Y-3.2996
M30
