%TF.GenerationSoftware,KiCad,Pcbnew,8.0.5*%
%TF.CreationDate,2024-11-19T19:36:28+01:00*%
%TF.ProjectId,board,626f6172-642e-46b6-9963-61645f706362,rev?*%
%TF.SameCoordinates,Original*%
%TF.FileFunction,Drillmap*%
%TF.FilePolarity,Positive*%
%FSLAX45Y45*%
G04 Gerber Fmt 4.5, Leading zero omitted, Abs format (unit mm)*
G04 Created by KiCad (PCBNEW 8.0.5) date 2024-11-19 19:36:28*
%MOMM*%
%LPD*%
G01*
G04 APERTURE LIST*
%ADD10C,0.050000*%
%ADD11C,0.120000*%
%ADD12C,0.200000*%
G04 APERTURE END LIST*
D10*
X9500000Y-3184000D02*
X24719000Y-3184000D01*
X24719000Y-14126000D01*
X9500000Y-14126000D01*
X9500000Y-3184000D01*
D11*
X10227105Y-12277100D02*
G75*
G02*
X9867895Y-12277100I-179605J0D01*
G01*
X9867895Y-12277100D02*
G75*
G02*
X10227105Y-12277100I179605J0D01*
G01*
X10265205Y-4619000D02*
G75*
G02*
X9905995Y-4619000I-179605J0D01*
G01*
X9905995Y-4619000D02*
G75*
G02*
X10265205Y-4619000I179605J0D01*
G01*
X14659405Y-4619000D02*
G75*
G02*
X14300195Y-4619000I-179605J0D01*
G01*
X14300195Y-4619000D02*
G75*
G02*
X14659405Y-4619000I179605J0D01*
G01*
X14672105Y-12277100D02*
G75*
G02*
X14312895Y-12277100I-179605J0D01*
G01*
X14312895Y-12277100D02*
G75*
G02*
X14672105Y-12277100I179605J0D01*
G01*
D12*
X9758277Y-14439984D02*
X9758277Y-14239984D01*
X9758277Y-14239984D02*
X9805896Y-14239984D01*
X9805896Y-14239984D02*
X9834467Y-14249508D01*
X9834467Y-14249508D02*
X9853515Y-14268555D01*
X9853515Y-14268555D02*
X9863039Y-14287603D01*
X9863039Y-14287603D02*
X9872563Y-14325698D01*
X9872563Y-14325698D02*
X9872563Y-14354269D01*
X9872563Y-14354269D02*
X9863039Y-14392365D01*
X9863039Y-14392365D02*
X9853515Y-14411412D01*
X9853515Y-14411412D02*
X9834467Y-14430460D01*
X9834467Y-14430460D02*
X9805896Y-14439984D01*
X9805896Y-14439984D02*
X9758277Y-14439984D01*
X9958277Y-14439984D02*
X9958277Y-14306650D01*
X9958277Y-14344746D02*
X9967801Y-14325698D01*
X9967801Y-14325698D02*
X9977324Y-14316174D01*
X9977324Y-14316174D02*
X9996372Y-14306650D01*
X9996372Y-14306650D02*
X10015420Y-14306650D01*
X10082086Y-14439984D02*
X10082086Y-14306650D01*
X10082086Y-14239984D02*
X10072563Y-14249508D01*
X10072563Y-14249508D02*
X10082086Y-14259031D01*
X10082086Y-14259031D02*
X10091610Y-14249508D01*
X10091610Y-14249508D02*
X10082086Y-14239984D01*
X10082086Y-14239984D02*
X10082086Y-14259031D01*
X10205896Y-14439984D02*
X10186848Y-14430460D01*
X10186848Y-14430460D02*
X10177324Y-14411412D01*
X10177324Y-14411412D02*
X10177324Y-14239984D01*
X10310658Y-14439984D02*
X10291610Y-14430460D01*
X10291610Y-14430460D02*
X10282086Y-14411412D01*
X10282086Y-14411412D02*
X10282086Y-14239984D01*
X10539229Y-14439984D02*
X10539229Y-14239984D01*
X10539229Y-14239984D02*
X10605896Y-14382841D01*
X10605896Y-14382841D02*
X10672563Y-14239984D01*
X10672563Y-14239984D02*
X10672563Y-14439984D01*
X10853515Y-14439984D02*
X10853515Y-14335222D01*
X10853515Y-14335222D02*
X10843991Y-14316174D01*
X10843991Y-14316174D02*
X10824944Y-14306650D01*
X10824944Y-14306650D02*
X10786848Y-14306650D01*
X10786848Y-14306650D02*
X10767801Y-14316174D01*
X10853515Y-14430460D02*
X10834467Y-14439984D01*
X10834467Y-14439984D02*
X10786848Y-14439984D01*
X10786848Y-14439984D02*
X10767801Y-14430460D01*
X10767801Y-14430460D02*
X10758277Y-14411412D01*
X10758277Y-14411412D02*
X10758277Y-14392365D01*
X10758277Y-14392365D02*
X10767801Y-14373317D01*
X10767801Y-14373317D02*
X10786848Y-14363793D01*
X10786848Y-14363793D02*
X10834467Y-14363793D01*
X10834467Y-14363793D02*
X10853515Y-14354269D01*
X10948753Y-14306650D02*
X10948753Y-14506650D01*
X10948753Y-14316174D02*
X10967801Y-14306650D01*
X10967801Y-14306650D02*
X11005896Y-14306650D01*
X11005896Y-14306650D02*
X11024944Y-14316174D01*
X11024944Y-14316174D02*
X11034467Y-14325698D01*
X11034467Y-14325698D02*
X11043991Y-14344746D01*
X11043991Y-14344746D02*
X11043991Y-14401888D01*
X11043991Y-14401888D02*
X11034467Y-14420936D01*
X11034467Y-14420936D02*
X11024944Y-14430460D01*
X11024944Y-14430460D02*
X11005896Y-14439984D01*
X11005896Y-14439984D02*
X10967801Y-14439984D01*
X10967801Y-14439984D02*
X10948753Y-14430460D01*
X11129705Y-14420936D02*
X11139229Y-14430460D01*
X11139229Y-14430460D02*
X11129705Y-14439984D01*
X11129705Y-14439984D02*
X11120182Y-14430460D01*
X11120182Y-14430460D02*
X11129705Y-14420936D01*
X11129705Y-14420936D02*
X11129705Y-14439984D01*
X11129705Y-14316174D02*
X11139229Y-14325698D01*
X11139229Y-14325698D02*
X11129705Y-14335222D01*
X11129705Y-14335222D02*
X11120182Y-14325698D01*
X11120182Y-14325698D02*
X11129705Y-14316174D01*
X11129705Y-14316174D02*
X11129705Y-14335222D01*
M02*
